<?xml version="1.0" ?><svg width="100" height="100" enable-background="new 0 0 24 24" id="Layer_1" version="1.1" viewBox="0 0 24 24" xml:space="preserve" xmlns="http://www.w3.org/2000/svg" xmlns:xlink="http://www.w3.org/1999/xlink"><g><path d="M20.1187134,5.6040649C21.2771606,5.0557251,22,4.3513184,22,3.5C22,1.2265625,16.8476563,0,12,0   S2,1.2265625,2,3.5c0,0.8513184,0.7228394,1.5557251,1.8812866,2.1040649C2.0979614,7.5598755,1,10.1509399,1,13   c0,6.0654297,4.9345703,11,11,11s11-4.9345703,11-11C23,10.1509399,21.9020386,7.5598755,20.1187134,5.6040649z    M19.3678589,4.8557739C17.4152832,3.0875854,14.8354492,2,12,2S6.5847168,3.0875854,4.6321411,4.8557739   C3.5784912,4.4194946,3,3.9259644,3,3.5C3,2.4560547,6.4238281,1,12,1s9,1.4560547,9,2.5   C21,3.9259644,20.4215088,4.4194946,19.3678589,4.8557739z" fill="#303C42"/><path d="M18.2833862,5.2310181C16.7463989,5.6784058,14.6136475,6,12,6S7.2536011,5.6784058,5.7166138,5.2310181   C7.4352417,3.8383179,9.6206055,3,12,3S16.5647583,3.8383179,18.2833862,5.2310181z" fill="#FED600"/><path d="M12,23C6.4858398,23,2,18.5141602,2,13c0-2.7260132,1.0990601-5.1981201,2.8740234-7.0037842   C6.8004761,6.6544189,9.4389648,7,12,7s5.1995239-0.3455811,7.1259766-1.0037842C20.9009399,7.8018799,22,10.2739868,22,13   C22,18.5141602,17.5141602,23,12,23z" fill="#FED600"/><path d="M6.5,10.5C6.7763672,10.5,7,10.2763672,7,10c0-0.5512695,0.4487305-1,1-1s1,0.4487305,1,1   c0,0.2763672,0.2236328,0.5,0.5,0.5S10,10.2763672,10,10c0-1.1030273-0.8969727-2-2-2s-2,0.8969727-2,2   C6,10.2763672,6.2236328,10.5,6.5,10.5z" fill="#303C42"/><path d="M14.5,10.5c0.2763672,0,0.5-0.2236328,0.5-0.5c0-0.5512695,0.4487305-1,1-1s1,0.4487305,1,1   c0,0.2763672,0.2236328,0.5,0.5,0.5S18,10.2763672,18,10c0-1.1030273-0.8969727-2-2-2s-2,0.8969727-2,2   C14,10.2763672,14.2236328,10.5,14.5,10.5z" fill="#303C42"/><path d="M18.5004883,15.0073242L5.5004883,15H5.5c-0.152832,0-0.2973633,0.0698242-0.3920898,0.1894531   c-0.0947266,0.1201172-0.1298828,0.2768555-0.0947266,0.425293C5.7504883,18.7353516,8.6889648,21,12,21   c3.3085938,0,6.246582-2.2612305,6.9863281-5.3769531c0.0356445-0.1489258,0.0009766-0.3056641-0.09375-0.4257813   C18.7973633,15.0776367,18.6533203,15.0073242,18.5004883,15.0073242z" fill="#303C42"/><path d="M9.2854004,19.3625488C9.6047974,19.1668701,10.0064697,19,10.4936523,19   c0.4316406,0,0.8515625,0.1171875,1.2485352,0.3481445c0.1552734,0.0908203,0.3476563,0.0908203,0.5029297,0   c0.7780762-0.4536133,1.7007446-0.4332275,2.467041,0.0157471C13.878479,19.7686768,12.9525757,20,12,20   C11.0462646,20,10.1195679,19.7681885,9.2854004,19.3625488z" fill="#E53A35"/><path d="M15.6523438,18.7995605c-1.0627441-0.8508911-2.4673462-1.0292969-3.6586914-0.4499512   c-1.178894-0.5722046-2.5703125-0.4038086-3.6439819,0.4512329c-0.9851685-0.7055664-1.7659912-1.6751099-2.1782837-2.800354   l11.6567383,0.0063477C17.4152832,17.1287842,16.635437,18.0953979,15.6523438,18.7995605z" fill="#B72025"/><path d="M7.9351969,18.3199081c-0.5274072-0.6463203-0.0435138-1.6197758,0.7906857-1.6193199   l8.7783289,0.0047951c0.1213379-0.2261963,0.2349854-0.4568481,0.3239136-0.6985474L6.1713867,16.0004883   c0.4122925,1.1252441,1.1931152,2.0947876,2.1782837,2.800354c0.0038452-0.0030518,0.0080566-0.005188,0.0119019-0.0082397   C8.2116337,18.6417255,8.0691242,18.4840317,7.9351969,18.3199081z" fill="#010101" opacity="0.1"/><path d="M22,13c0-0.3596191-0.0217285-0.7139282-0.0588989-1.0635986   c-0.0130005-0.1221313-0.0374146-0.2406006-0.0548096-0.3613892c-0.0322876-0.2245483-0.0650024-0.4489136-0.1119995-0.6682739   c-0.0304565-0.1419067-0.0706787-0.2799683-0.1071167-0.4196167c-0.0501099-0.1921387-0.100647-0.3840942-0.1617432-0.5715942   c-0.0474243-0.1453857-0.1021729-0.2872925-0.1560059-0.4297485c-0.0661011-0.1749878-0.1342773-0.348999-0.2097778-0.519165   c-0.0629272-0.1417236-0.1306152-0.2806396-0.1998291-0.4188232c-0.0822144-0.1640015-0.1679688-0.3256226-0.2587891-0.484314   c-0.0762329-0.1333008-0.1548462-0.2649536-0.2369385-0.3943481c-0.0995483-0.1567993-0.2044067-0.3095703-0.3122559-0.4602661   c-0.0859985-0.1202393-0.1720581-0.2402954-0.2631226-0.3565674c-0.1208496-0.1540527-0.2487793-0.302124-0.3782959-0.4487915   c-0.0900879-0.1021729-0.1782837-0.2060547-0.2723999-0.3044434c-0.0330811-0.0344849-0.0697021-0.0653687-0.1032104-0.0994263   c-0.0340576,0.0115967-0.0719604,0.0214233-0.1064453,0.0327759C20.2540894,7.6986084,21,9.7593384,21,12   c0,5.5228271-4.4771729,10-10,10c-2.4966431,0-4.7728882-0.9224854-6.5251465-2.4353027   c0.0280762,0.0321655,0.0576782,0.0629883,0.0861816,0.0947876c0.1762695,0.1968384,0.3585815,0.3881836,0.5496826,0.5706177   c0.0664673,0.0633545,0.1355591,0.1237183,0.2037964,0.1852417c0.1803589,0.1630249,0.3659058,0.3204346,0.5578003,0.4701538   c0.0844727,0.0657349,0.1705933,0.1292725,0.2571411,0.1923828c0.1835327,0.1340332,0.3718262,0.2614746,0.5645142,0.3829956   c0.1013184,0.0637817,0.2032471,0.1264648,0.3069458,0.1867065c0.1868896,0.1087036,0.3787231,0.2095337,0.5730591,0.3062134   c0.1150513,0.0570679,0.2297363,0.1146851,0.347229,0.1674805c0.1922607,0.0864868,0.3896484,0.163208,0.5881348,0.2376709   c0.1253662,0.046936,0.2494507,0.0963745,0.3771362,0.1383057c0.2027588,0.0667725,0.4107666,0.1212158,0.6190186,0.1751099   c0.1282349,0.0330811,0.2544556,0.0710449,0.3846436,0.0991211c0.2289429,0.0494995,0.4631958,0.0835571,0.6977539,0.1169434   c0.1141968,0.0162354,0.2259521,0.039917,0.3413086,0.0522461C11.2811279,22.9783325,11.6379395,23,12,23   C17.5141602,23,22,18.5141602,22,13z" fill="#010101" opacity="0.1"/><linearGradient gradientUnits="userSpaceOnUse" id="SVGID_1_" x1="0.6438028" x2="22.5919914" y1="6.0776396" y2="16.3122482"><stop offset="0" style="stop-color:#FFFFFF;stop-opacity:0.2"/><stop offset="1" style="stop-color:#FFFFFF;stop-opacity:0"/></linearGradient><path d="M20.1187134,5.6040649C21.2771606,5.0557251,22,4.3513184,22,3.5C22,1.2265625,16.8476563,0,12,0   S2,1.2265625,2,3.5c0,0.8513184,0.7228394,1.5557251,1.8812866,2.1040649C2.0979614,7.5598755,1,10.1509399,1,13   c0,6.0654297,4.9345703,11,11,11s11-4.9345703,11-11C23,10.1509399,21.9020386,7.5598755,20.1187134,5.6040649z    M19.3678589,4.8557739C17.4152832,3.0875854,14.8354492,2,12,2S6.5847168,3.0875854,4.6321411,4.8557739   C3.5784912,4.4194946,3,3.9259644,3,3.5C3,2.4560547,6.4238281,1,12,1s9,1.4560547,9,2.5   C21,3.9259644,20.4215088,4.4194946,19.3678589,4.8557739z" fill="url(#SVGID_1_)"/></g><g/><g/><g/><g/><g/><g/><g/><g/><g/><g/><g/><g/><g/><g/><g/></svg>
