<?xml version="1.0" ?><svg width="100" height="100" enable-background="new 0 0 24 24" id="Layer_1" version="1.1" viewBox="0 0 24 24" xml:space="preserve" xmlns="http://www.w3.org/2000/svg" xmlns:xlink="http://www.w3.org/1999/xlink"><g><path d="M12,0C5.3833008,0,0,5.3828125,0,12s5.3833008,12,12,12s12-5.3828125,12-12S18.6166992,0,12,0z" fill="#303C42"/><path d="M12,23C5.9345703,23,1,18.0654297,1,12S5.9345703,1,12,1   c1.6971436,0,3.2993164,0.397644,4.736084,1.0869751c-0.0302734,0.0192871-0.0631714,0.0330811-0.0895996,0.0595093L16,2.7929688   l-0.6464844-0.6464844c-0.1953125-0.1953125-0.5117188-0.1953125-0.7070313,0s-0.1953125,0.5117188,0,0.7070313l1,1   C15.7441406,3.9511719,15.8720703,4,16,4s0.2558594-0.0488281,0.3535156-0.1464844l1-1   c0.1010742-0.1010742,0.1474609-0.234375,0.1439209-0.3667603C20.7811279,4.3919678,23,7.9380493,23,12   C23,18.0654297,18.0654297,23,12,23z" fill="#E53A35"/><path d="M19.1216431,3.6641235C20.7502441,5.5797119,21.75,8.0437012,21.75,10.75   c0,6.0654297-4.9345703,11-11,11c-2.7150879,0-5.1990356-0.9938354-7.119751-2.630249C5.6494751,21.4898682,8.6496582,23,12,23   c6.0654297,0,11-4.9345703,11-11C23,8.6577759,21.4831543,5.6811523,19.1216431,3.6641235z" fill="#010101" opacity="0.1"/><path d="M6,11c0,1.1025391,0.8969727,2,2,2s2-0.8974609,2-2c0-0.0421143-0.0098877-0.0814819-0.0124512-0.1229248   l0.2888184,0.1444092c0.0717773,0.0361328,0.1479492,0.0527344,0.2231445,0.0527344   c0.1835938,0,0.3598633-0.1015625,0.4477539-0.2763672c0.1235352-0.2470703,0.0234375-0.546875-0.2236328-0.6708984l-4-2   c-0.246582-0.1240234-0.5473633-0.0224609-0.6708984,0.2236328c-0.1235352,0.2470703-0.0234375,0.546875,0.2236328,0.6708984   L6.899292,9.3329468C6.3583374,9.6913452,6,10.3040771,6,11z" fill="#303C42"/><circle cx="8" cy="11" fill="#BDDDF4" r="1"/><path d="M8.4083862,10.0919189C8.4649658,10.2171631,8.5,10.3537598,8.5,10.5   c0,0.5517578-0.4487305,1-1,1c-0.1463013,0-0.28302-0.0352173-0.4083862-0.0919189C7.2485352,11.7554932,7.5947876,12,8,12   c0.5512695,0,1-0.4482422,1-1C9,10.5946655,8.7554321,10.2489014,8.4083862,10.0919189z" fill="#010101" opacity="0.1"/><path d="M17.100708,9.3329468l0.6229248-0.3114624c0.2470703-0.1240234,0.347168-0.4238281,0.2236328-0.6708984   c-0.1240234-0.2460938-0.4248047-0.3476563-0.6708984-0.2236328l-4,2c-0.2470703,0.1240234-0.347168,0.4238281-0.2236328,0.6708984   c0.0878906,0.1748047,0.2641602,0.2763672,0.4477539,0.2763672c0.0751953,0,0.1513672-0.0166016,0.2231445-0.0527344   l0.2888184-0.1444092C14.0098877,10.9185181,14,10.9578857,14,11c0,1.1025391,0.8969727,2,2,2s2-0.8974609,2-2   C18,10.3040771,17.6416626,9.6913452,17.100708,9.3329468z" fill="#303C42"/><circle cx="16" cy="11" fill="#BDDDF4" r="1"/><path d="M12,15c-0.0009766,0-0.0019531,0-0.0029297,0c-4.199707,0-5.8295898,2.1103516-5.8969727,2.2001953   c-0.1650391,0.2197266-0.1206055,0.5302734,0.0981445,0.6962891c0.2192383,0.1660156,0.5322266,0.1240234,0.699707-0.09375   C6.9545898,17.7294922,8.3320313,16,11.9970703,16C11.9980469,16,11.9990234,16,12,16   c3.6669922,0.0009766,5.0454102,1.7294922,5.1000977,1.7998047C17.1982422,17.9306641,17.3486328,18,17.5004883,18   c0.1044922,0,0.2094727-0.0322266,0.2998047-0.0996094c0.2207031-0.1660156,0.2651367-0.4794922,0.0996094-0.7001953   C17.8325195,17.1103516,16.2016602,15.0009766,12,15z" fill="#303C42"/><path d="M14.6464844,7.8535156c0.1953125,0.1953125,0.5117188,0.1953125,0.7070313,0L16,7.2070313   l0.6464844,0.6464844C16.7441406,7.9511719,16.8720703,8,17,8s0.2558594-0.0488281,0.3535156-0.1464844   c0.1953125-0.1953125,0.1953125-0.5117188,0-0.7070313l-1-1c-0.1953125-0.1953125-0.5117188-0.1953125-0.7070313,0l-1,1   C14.4511719,7.3417969,14.4511719,7.6582031,14.6464844,7.8535156z" fill="#303C42"/><path d="M13.1464844,6.3535156C13.2441406,6.4511719,13.3720703,6.5,13.5,6.5   s0.2558594-0.0488281,0.3535156-0.1464844l1-1c0.1953125-0.1953125,0.1953125-0.5117188,0-0.7070313l-1-1   c-0.1953125-0.1953125-0.5117188-0.1953125-0.7070313,0s-0.1953125,0.5117188,0,0.7070313L13.7929688,5l-0.6464844,0.6464844   C12.9511719,5.8417969,12.9511719,6.1582031,13.1464844,6.3535156z" fill="#303C42"/><path d="M18.8535156,3.6464844c-0.1953125-0.1953125-0.5117188-0.1953125-0.7070313,0l-1,1   c-0.1953125,0.1953125-0.1953125,0.5117188,0,0.7070313l1,1C18.2441406,6.4511719,18.3720703,6.5,18.5,6.5   s0.2558594-0.0488281,0.3535156-0.1464844c0.1953125-0.1953125,0.1953125-0.5117188,0-0.7070313L18.2070313,5l0.6464844-0.6464844   C19.0488281,4.1582031,19.0488281,3.8417969,18.8535156,3.6464844z" fill="#303C42"/><path d="M16.4083862,10.0919189C16.4649658,10.2171631,16.5,10.3537598,16.5,10.5   c0,0.5517578-0.4487305,1-1,1c-0.1463013,0-0.28302-0.0352173-0.4083862-0.0919189C15.2485352,11.7554932,15.5947876,12,16,12   c0.5512695,0,1-0.4482422,1-1C17,10.5946655,16.7554321,10.2489014,16.4083862,10.0919189z" fill="#010101" opacity="0.1"/><linearGradient gradientUnits="userSpaceOnUse" id="SVGID_1_" x1="1.1248375" x2="22.8751621" y1="6.9288282" y2="17.0711708"><stop offset="0" style="stop-color:#FFFFFF;stop-opacity:0.2"/><stop offset="1" style="stop-color:#FFFFFF;stop-opacity:0"/></linearGradient><path d="M12,0C5.3833008,0,0,5.3828125,0,12s5.3833008,12,12,12s12-5.3828125,12-12S18.6166992,0,12,0z" fill="url(#SVGID_1_)"/></g><g/><g/><g/><g/><g/><g/><g/><g/><g/><g/><g/><g/><g/><g/><g/></svg>
