<?xml version="1.0" ?><svg width="100" height="100" enable-background="new 0 0 24 24" id="Layer_1" version="1.1" viewBox="0 0 24 24" xml:space="preserve" xmlns="http://www.w3.org/2000/svg" xmlns:xlink="http://www.w3.org/1999/xlink"><g><path d="M24,6.5C24,5.121582,22.8789063,4,21.5,4h-0.5692139C18.6530151,1.460022,15.4153442,0,12,0   C8.5872803,0,5.3501587,1.4598389,3.0698853,4H2.5C1.1210938,4,0,5.121582,0,6.5v1   c0,0.6326904,0.112854,1.2382202,0.3103638,1.8044434C0.1084595,10.1858521,0,11.0913696,0,12c0,6.6166992,5.3828125,12,12,12   s12-5.3833008,12-12c0-0.9099731-0.1078491-1.8154297-0.3101807-2.6960449C23.8872681,8.737854,24,8.1325073,24,7.5V6.5z" fill="#303C42"/><path d="M23,12c0,6.0654297-4.9345703,11-11,11S1,18.0654297,1,12   c0-0.4180908,0.0264893-0.8352661,0.0734253-1.2496338C2.0756836,12.1114502,3.6842041,13,5.5,13   c2.9819336,0,5.4124146-2.3876343,5.4924316-5.3510132C11.109375,7.4651489,11.4574585,7,12,7   c0.5441895,0,0.8927612,0.4680786,1.0075684,0.6491089C13.0876465,10.6125488,15.5181274,13,18.5,13   c1.815979,0,3.4247437-0.8887329,4.4269409-2.2501221C22.9738159,11.1640625,23,11.5814819,23,12z" fill="#FED600"/><path d="M22.9269409,10.7498779c-0.2769775,0.3762207-0.6040649,0.7116699-0.965271,1.006958   C21.5699463,17.4690552,16.8099365,22,11,22c-2.7786255,0-5.312439-1.0437622-7.2507324-2.7492676   C5.7666626,21.543457,8.7131958,23,12,23c6.0654297,0,11-4.9345703,11-11   C23,11.5814819,22.9738159,11.1640625,22.9269409,10.7498779z" fill="#010101" opacity="0.1"/><path d="M18.6181641,14.0214844c-0.2626953-0.0654297-0.5380859,0.0991211-0.6035156,0.3671875   C17.3515625,17.1040039,14.8789063,19,12.0009766,19c-2.8808594,0-5.3544922-1.8989258-6.0146484-4.6181641   c-0.0654297-0.2680664-0.3339844-0.4326172-0.6044922-0.3676758c-0.2685547,0.0649414-0.4326172,0.3354492-0.3681641,0.6040039   C5.7841797,17.7866211,8.6572266,20,12.0009766,20c3.3408203,0,6.2128906-2.2099609,6.984375-5.3740234   C19.0507813,14.3574219,18.8867188,14.0869141,18.6181641,14.0214844z" fill="#303C42"/><path d="M23,6.5v1c0,2.4814453-2.0185547,4.5-4.5,4.5S14,9.9814453,14,7.5v-1C14,5.6728516,14.6728516,5,15.5,5h6   C22.3271484,5,23,5.6728516,23,6.5z" fill="#5C6771"/><path d="M23,6.5v1c0,2.4814453-2.0185547,4.5-4.5,4.5S14,9.9814453,14,7.5v-1C14,5.6728516,14.6728516,5,15.5,5h6   C22.3271484,5,23,5.6728516,23,6.5z" fill="#5C6771"/><path d="M13.0205688,6.2961426C12.7429199,6.1275024,12.4085083,6,12,6s-0.7429199,0.1275024-1.0205688,0.2961426   C10.9393921,5.8111572,10.7653809,5.3673706,10.4873657,5h3.0252686   C13.2346191,5.3673706,13.0606079,5.8111572,13.0205688,6.2961426z" fill="#FED600"/><path d="M12,1c2.8207397,0,5.5123291,1.0828247,7.5450439,3H4.4554443C6.4901123,2.0824585,9.1813965,1,12,1z" fill="#FED600"/><path d="M1,6.5C1,5.6728516,1.6728516,5,2.5,5h6C9.3271484,5,10,5.6728516,10,6.5v1   C10,9.9814453,7.9814453,12,5.5,12S1,9.9814453,1,7.5V6.5z" fill="#5C6771"/><path d="M9.0936279,5.1236572c0.0789185,0.182312,0.1236572,0.3826294,0.1236572,0.5936279v1   c0,2.4814453-2.0185547,4.5-4.5,4.5c-1.0410767,0-1.9885254-0.369812-2.75177-0.9655151C2.7897339,11.3077393,4.0596313,12,5.5,12   C7.9814453,12,10,9.9814453,10,7.5v-1C10,5.8838501,9.6260376,5.354248,9.0936279,5.1236572z" fill="#010101" opacity="0.1"/><path d="M22.0936279,5.1236572c0.0789185,0.182312,0.1236572,0.3826294,0.1236572,0.5936279v1   c0,2.4814453-2.0185547,4.5-4.5,4.5c-1.0410767,0-1.9885254-0.369812-2.75177-0.9655151   C15.7897339,11.3077393,17.0596313,12,18.5,12c2.4814453,0,4.5-2.0185547,4.5-4.5v-1   C23,5.8838501,22.6260376,5.354248,22.0936279,5.1236572z" fill="#010101" opacity="0.1"/><linearGradient gradientUnits="userSpaceOnUse" id="SVGID_1_" x1="1.1189131" x2="9.4037304" y1="5.9126" y2="9.7758741"><stop offset="0" style="stop-color:#FFFFFF;stop-opacity:0.2"/><stop offset="1" style="stop-color:#FFFFFF;stop-opacity:0"/></linearGradient><path d="M1,6.5C1,5.6728516,1.6728516,5,2.5,5h6C9.3271484,5,10,5.6728516,10,6.5v1   C10,9.9814453,7.9814453,12,5.5,12S1,9.9814453,1,7.5V6.5z" fill="url(#SVGID_1_)"/><linearGradient gradientUnits="userSpaceOnUse" id="SVGID_2_" x1="14.1189127" x2="22.4037304" y1="5.9126" y2="9.7758741"><stop offset="0" style="stop-color:#FFFFFF;stop-opacity:0.2"/><stop offset="1" style="stop-color:#FFFFFF;stop-opacity:0"/></linearGradient><path d="M23,6.5v1c0,2.4814453-2.0185547,4.5-4.5,4.5S14,9.9814453,14,7.5v-1   C14,5.6728516,14.6728516,5,15.5,5h6C22.3271484,5,23,5.6728516,23,6.5z" fill="url(#SVGID_2_)"/><linearGradient gradientUnits="userSpaceOnUse" id="SVGID_3_" x1="-0.1764765" x2="22.8742218" y1="6.324429" y2="17.0731468"><stop offset="0" style="stop-color:#FFFFFF;stop-opacity:0.2"/><stop offset="1" style="stop-color:#FFFFFF;stop-opacity:0"/></linearGradient><path d="M24,6.5C24,5.121582,22.8789063,4,21.5,4h-0.5692139C18.6530151,1.460022,15.4153442,0,12,0   C8.5872803,0,5.3501587,1.4598389,3.0698853,4H2.5C1.1210938,4,0,5.121582,0,6.5v1   c0,0.6326904,0.112854,1.2382202,0.3103638,1.8044434C0.1084595,10.1858521,0,11.0913696,0,12c0,6.6166992,5.3828125,12,12,12   s12-5.3833008,12-12c0-0.9099731-0.1078491-1.8154297-0.3101807-2.6960449C23.8872681,8.737854,24,8.1325073,24,7.5V6.5z" fill="url(#SVGID_3_)"/></g><g/><g/><g/><g/><g/><g/><g/><g/><g/><g/><g/><g/><g/><g/><g/></svg>
