<?xml version="1.0" ?><svg enable-background="new 0 0 24 24" id="Layer_1" version="1.1" viewBox="0 0 24 24" xml:space="preserve" xmlns="http://www.w3.org/2000/svg" xmlns:xlink="http://www.w3.org/1999/xlink"><g><path d="M20.819397,6.4401855C21.9526978,4.4024658,22,1.0300293,22,0.5c0-0.0029297,0-0.0063477,0-0.0092773   c0-0.0019531,0-0.003418,0-0.0053711c-0.0004883-0.0024414-0.0004883-0.0048828-0.0004883-0.0073242   c0-0.0014648,0-0.0029297,0-0.0039063c0,0,0-0.0004883,0-0.0009766c0,0,0-0.0004883-0.0004883-0.0004883   C21.9848633,0.2094727,21.7670898,0,21.5,0c-0.2758789,0-0.4995117,0.2236328-0.5,0.4995117V0.5v0.0004883   c-0.0004883,0.2631836-0.2573242,1.234375-3.5371094,2.7143555c-0.0799561,0.0360718-0.1463013,0.0822144-0.2191162,0.1237183   c-3.2061768-1.7388916-7.2845459-1.7391968-10.487854-0.0001831c-0.0726929-0.0414429-0.138916-0.0875244-0.218811-0.1235352   C3.2573242,1.7348633,3.0004883,0.7636719,3,0.5004883V0.5V0.4995117C2.9995117,0.2236328,2.7758789,0,2.5,0   C2.2329102,0,2.0151367,0.2094727,2.0009766,0.4726563c-0.0004883,0-0.0004883,0.0004883-0.0004883,0.0004883   c0,0.0004883,0,0.0009766,0,0.0009766C2,0.4750977,2,0.4765625,2.0004883,0.4780273c0,0.0024414,0,0.0048828-0.0004883,0.0073242   c0,0.0019531,0,0.003418,0,0.0053711C2,0.4936523,2,0.4970703,2,0.5c0,0.5299072,0.0473022,3.9014282,1.1800537,5.93927   C1.7578735,8.3461914,1,10.6049805,1,13c0,6.0654297,4.9345703,11,11,11s11-4.9345703,11-11   C23,10.6046143,22.2418823,8.3462524,20.819397,6.4401855z" fill="#303C42"/><path d="M20.8813477,2.371582C20.6464844,4.4165039,20.012207,7,18.5478516,7l-0.1665039-0.0039063   c-0.8344727-0.0380859-1.2456055-0.644043-1.3515625-1.1987305c-0.1049805-0.5478516,0.0532227-1.3139648,0.8442383-1.6713867   C19.1982422,3.5288086,20.1982422,2.9462891,20.8813477,2.371582z" fill="#4E4E4E"/><path d="M18.5478516,6.128418l-0.1665039-0.0039063   c-0.7768555-0.0354614-1.1749268-0.5636597-1.3132935-1.0838623c-0.0755615,0.2600098-0.0822144,0.5272217-0.038269,0.7567139   c0.105957,0.5546875,0.5170898,1.1606445,1.3515625,1.1987305L18.5478516,7c1.4643555,0,2.0986328-2.5834961,2.3334961-4.628418   c-0.0421143,0.0354004-0.0964966,0.071167-0.1409912,0.1066284C20.4284668,4.2838745,19.7852173,6.128418,18.5478516,6.128418z" fill="#010101" opacity="0.1"/><path d="M6.1259766,4.1259766c0.7910156,0.3574219,0.9492188,1.1235352,0.8442383,1.6713867   C6.8642578,6.3520508,6.453125,6.9580078,5.6176758,6.9960938L5.4521484,7C3.987793,7,3.3535156,4.4165039,3.1186523,2.371582   C3.8017578,2.9462891,4.8017578,3.5288086,6.1259766,4.1259766z" fill="#4E4E4E"/><path d="M5.6176758,6.1245117L5.4521484,6.128418   c-1.2373657,0-1.8806152-1.8445435-2.1925049-3.6502075C3.2151489,2.442749,3.1607666,2.4069824,3.1186523,2.371582   C3.3535156,4.4165039,3.987793,7,5.4521484,7l0.1655273-0.0039063c0.8354492-0.0380859,1.246582-0.644043,1.3525391-1.1987305   c0.0439453-0.2294922,0.0372925-0.4967041-0.038269-0.7567139C6.7935791,5.5608521,6.3954468,6.0890503,5.6176758,6.1245117z" fill="#010101" opacity="0.1"/><path d="M12,23C6.4858398,23,2,18.5141602,2,13c0-2.0759277,0.6261597-4.0389404,1.8045654-5.7193604   C4.2411499,7.7207031,4.7784424,8,5.4521484,8c0.0727539,0,0.144043-0.0014648,0.2124023-0.0048828   c1.1479454-0.0522461,2.0678711-0.8598633,2.2880859-2.0097656c0.1182251-0.6174927,0.0137939-1.3375854-0.3903809-1.9255371   c2.7493896-1.3566284,6.1221313-1.3571777,8.8753662,0.0001831c-0.4040527,0.5878906-0.5084839,1.3079224-0.3902588,1.925354   c0.2202148,1.1499023,1.1401329,1.9575195,2.2871094,2.0097656C18.4038086,7.9985352,18.4750977,8,18.5478516,8   c0.6738281,0,1.2111816-0.27948,1.6478271-0.7196655C21.3740234,8.9609985,22,10.9233398,22,13C22,18.5141602,17.5141602,23,12,23z   " fill="#E53A35"/><path d="M20.1956787,7.2803345c-0.0856934,0.0863647-0.1785278,0.1608276-0.2722168,0.2339478   c0.6915283,1.3733521,1.055481,2.885498,1.055481,4.4645996c0,5.5141602-4.4858398,10-10,10   c-2.4978027,0-4.7788086-0.9267578-6.5332642-2.4462891C6.2807007,21.6516724,8.9833374,23,12,23c5.5141602,0,10-4.4858398,10-10   C22,10.9233398,21.3740234,8.9609985,20.1956787,7.2803345z" fill="#010101" opacity="0.1"/><path d="M18.5004883,15.0073242L5.5004883,15H5.5c-0.152832,0-0.2973633,0.0698242-0.3920898,0.1894531   c-0.0947266,0.1201172-0.1298828,0.2768555-0.0947266,0.425293C5.7504883,18.7353516,8.6889648,21,12,21   c3.3085938,0,6.2470703-2.2612305,6.9863281-5.3769531c0.0356445-0.1489258,0.0009766-0.3056641-0.09375-0.4257813   C18.7973633,15.0776367,18.6533203,15.0073242,18.5004883,15.0073242z" fill="#303C42"/><polygon fill="#F3F3F3" points="15.6881104,16.0056763 15.5,16.3818359 15.3118286,16.0054932  "/><polygon fill="#F3F3F3" points="8.6900024,16.0018311 8.5,16.3818359 8.3099365,16.0016479  "/><path d="M9.2854004,19.3625488C9.6047974,19.1668701,10.0064697,19,10.4936523,19   c0.4316406,0,0.8515625,0.1171875,1.2485352,0.3481445c0.1552734,0.0908203,0.3476563,0.0908203,0.5029297,0   c0.7780762-0.4536133,1.7010498-0.4332275,2.4671631,0.0157471C13.87854,19.7686768,12.9525757,20,12,20   C11.0462646,20,10.1195679,19.7681885,9.2854004,19.3625488z" fill="#E53A35"/><path d="M15.6524658,18.7996216c-1.0627441-0.8510132-2.4674072-1.0293579-3.6588135-0.4500122   c-1.1793213-0.5722046-2.5703735-0.4038086-3.644043,0.4511719c-0.9851685-0.7055664-1.7659302-1.6750488-2.1782227-2.800293   l1.0200806,0.0005493l0.8612671,1.7225952C8.1376953,17.8930664,8.3105469,18,8.5,18s0.3623047-0.1069336,0.4472656-0.2763672   l0.8605957-1.7211914l4.385498,0.0024414l0.859375,1.71875C15.1376953,17.8930664,15.3105469,18,15.5,18   s0.3623047-0.1069336,0.4472656-0.2763672l0.8587036-1.7173462l1.0221558,0.0005493   C17.4154663,17.1288452,16.6356201,18.095459,15.6524658,18.7996216z" fill="#B72025"/><g><path d="M17.828125,16.0068359l-1.0221558-0.0005493l-0.2542725,0.5084839l1.0409546,0.000061    C17.6746826,16.3471069,17.7634888,16.1826172,17.828125,16.0068359z" fill="#010101" opacity="0.1"/><polygon fill="#010101" opacity="0.1" points="14.4482422,16.5147095 14.1933594,16.0048828 9.8078613,16.0024414     9.5518188,16.5145264   "/><path d="M6.7128906,17.0610352c0.0678711,0.1071167,0.1367798,0.2133179,0.2115479,0.315979    c0.1040649,0.1411133,0.2138062,0.2782593,0.3300171,0.4104004c0.0436401,0.0501709,0.0889282,0.0987549,0.1342773,0.147583    c0.1435547,0.1533203,0.2911987,0.3033447,0.4494019,0.4429932c-0.4940186-0.5490112-0.899292-1.1716309-1.152832-1.8635864    h0.7628784l-0.2567139-0.5133667l-1.0200806-0.0005493c0.0926514,0.2529297,0.2097778,0.4951172,0.3378296,0.7310791    C6.5714111,16.8447876,6.6430664,16.9522705,6.7128906,17.0610352z" fill="#010101" opacity="0.1"/></g><path d="M6.2373047,9.925293c0.0328369,0.0203857,0.4206543,0.25354,0.968811,0.4970703   C7.0855103,10.5875854,7,10.7803345,7,11c0,0.5512695,0.4487305,1,1,1s1-0.4487305,1-1   c0-0.0140381-0.0074463-0.0256348-0.0079956-0.0395508C9.1618652,10.9832764,9.3321533,11,9.5,11   c0.2763672,0,0.5-0.2236328,0.5-0.5S9.7763672,10,9.5,10c-1.2192383,0-2.7226563-0.9165039-2.737793-0.9257813   c-0.2329102-0.1435547-0.5429688-0.0722656-0.6875,0.1635742C5.9296875,9.4726563,6.0024414,9.7802734,6.2373047,9.925293z" fill="#303C42"/><path d="M14.5,11c0.1678467,0,0.3381348-0.0167236,0.5079956-0.0395508C15.0074463,10.9743652,15,10.9859619,15,11   c0,0.5512695,0.4487305,1,1,1s1-0.4487305,1-1c0-0.2196655-0.0855103-0.4124146-0.2061157-0.5776367   c0.5481567-0.2435303,0.9359741-0.4766846,0.968811-0.4970703c0.2348633-0.1450195,0.3076172-0.4526367,0.1625977-0.6875   c-0.1450195-0.2358398-0.4541016-0.3071289-0.6875-0.1635742C17.2226563,9.0834961,15.7192383,10,14.5,10   c-0.2763672,0-0.5,0.2236328-0.5,0.5S14.2236328,11,14.5,11z" fill="#303C42"/><linearGradient gradientUnits="userSpaceOnUse" id="SVGID_1_" x1="-0.0204377" x2="22.9925251" y1="4.7221832" y2="15.4533043"><stop offset="0" style="stop-color:#FFFFFF;stop-opacity:0.2"/><stop offset="1" style="stop-color:#FFFFFF;stop-opacity:0"/></linearGradient><path d="M20.819397,6.4401855C21.9526978,4.4024658,22,1.0300293,22,0.5   c0-0.0029297,0-0.0063477,0-0.0092773c0-0.0019531,0-0.003418,0-0.0053711   c-0.0004883-0.0024414-0.0004883-0.0048828-0.0004883-0.0073242c0-0.0014648,0-0.0029297,0-0.0039063c0,0,0-0.0004883,0-0.0009766   c0,0,0-0.0004883-0.0004883-0.0004883C21.9848633,0.2094727,21.7670898,0,21.5,0c-0.2758789,0-0.4995117,0.2236328-0.5,0.4995117   V0.5v0.0004883c-0.0004883,0.2631836-0.2573242,1.234375-3.5371094,2.7143555   c-0.0799561,0.0360718-0.1463013,0.0822144-0.2191162,0.1237183c-3.2061768-1.7388916-7.2845459-1.7391968-10.487854-0.0001831   c-0.0726929-0.0414429-0.138916-0.0875244-0.218811-0.1235352C3.2573242,1.7348633,3.0004883,0.7636719,3,0.5004883V0.5V0.4995117   C2.9995117,0.2236328,2.7758789,0,2.5,0C2.2329102,0,2.0151367,0.2094727,2.0009766,0.4726563   c-0.0004883,0-0.0004883,0.0004883-0.0004883,0.0004883c0,0.0004883,0,0.0009766,0,0.0009766   C2,0.4750977,2,0.4765625,2.0004883,0.4780273c0,0.0024414,0,0.0048828-0.0004883,0.0073242c0,0.0019531,0,0.003418,0,0.0053711   C2,0.4936523,2,0.4970703,2,0.5c0,0.5299072,0.0473022,3.9014282,1.1800537,5.93927C1.7578735,8.3461914,1,10.6049805,1,13   c0,6.0654297,4.9345703,11,11,11s11-4.9345703,11-11C23,10.6046143,22.2418823,8.3462524,20.819397,6.4401855z" fill="url(#SVGID_1_)"/></g><g/><g/><g/><g/><g/><g/><g/><g/><g/><g/><g/><g/><g/><g/><g/></svg>