<?xml version="1.0" ?><svg width="100" height="100" enable-background="new 0 0 24 24" id="Layer_1" version="1.1" viewBox="0 0 24 24" xml:space="preserve" xmlns="http://www.w3.org/2000/svg" xmlns:xlink="http://www.w3.org/1999/xlink"><g><path d="M12,0C5.3833008,0,0,5.3833008,0,12s5.3833008,12,12,12s12-5.3833008,12-12S18.6166992,0,12,0z" fill="#303C42"/><path d="M12,23C5.9345703,23,1,18.0654297,1,12S5.9345703,1,12,1s11,4.9345703,11,11S18.0654297,23,12,23z" fill="#FED600"/><path d="M19.119751,3.630249C20.7561646,5.5509644,21.75,8.0349121,21.75,10.75   c0,6.0654297-4.9345703,11-11,11c-2.7150879,0-5.1990356-0.9938354-7.119751-2.630249C5.6494751,21.4898682,8.6496582,23,12,23   c6.0654297,0,11-4.9345703,11-11C23,8.6496582,21.4898682,5.6494751,19.119751,3.630249z" fill="#010101" opacity="0.1"/><circle cx="8" cy="9" fill="#303C42" r="1"/><circle cx="16" cy="9" fill="#303C42" r="1"/><path d="M6.5004883,7c0.0751953,0,0.1513672-0.0170898,0.2231445-0.0527344l2-1   c0.2470703-0.1235352,0.347168-0.4238281,0.2236328-0.6708984S8.5234375,4.9301758,8.2763672,5.0527344l-2,1   c-0.2470703,0.1235352-0.347168,0.4238281-0.2236328,0.6708984C6.140625,6.8989258,6.3168945,7,6.5004883,7z" fill="#303C42"/><path d="M17.7236328,6.0527344l-2-1c-0.246582-0.1225586-0.5473633-0.0234375-0.6708984,0.2236328   s-0.0234375,0.5473633,0.2236328,0.6708984l2,1C17.3481445,6.9829102,17.4243164,7,17.4995117,7   c0.1835938,0,0.3598633-0.1010742,0.4477539-0.2763672C18.0708008,6.4765625,17.9707031,6.1762695,17.7236328,6.0527344z" fill="#303C42"/><path d="M12,14c-3.7167969,0-5.6210938,2.4946289-5.699707,2.6000977   c-0.4907227,0.6542969-0.3598633,1.5913086,0.2924805,2.0888672c0.6494141,0.496582,1.590332,0.3735352,2.0957031-0.2739258   C8.7338867,18.3569336,9.8222656,17,12,17c2.1757813,0,3.2617188,1.3515625,3.300293,1.3999023   C15.5820313,18.7758789,16.0307617,19,16.5009766,19c0.3266602,0,0.6376953-0.1040039,0.8989258-0.2998047   c0.3208008-0.2407227,0.5283203-0.5913086,0.5849609-0.9882813c0.0566406-0.3964844-0.0444336-0.7915039-0.2841797-1.1108398   C17.6210938,16.4946289,15.7167969,14,12,14z" fill="#303C42"/><path d="M16.7998047,17.8999023c-0.2138672,0.1616211-0.5341797,0.1201172-0.706543-0.1083984   C15.949707,17.6079102,14.6118164,16,12,16c-2.6142578,0-3.9545898,1.6137695-4.0996094,1.7993164   c-0.1689453,0.2177734-0.484375,0.2592773-0.7011719,0.0947266c-0.2211914-0.168457-0.2646484-0.4736328-0.0981445-0.6953125   C7.1679688,17.109375,8.7788086,15,12,15s4.8320313,2.109375,4.8999023,2.2001953   c0.0800781,0.1064453,0.1137695,0.2382813,0.0952148,0.3706055C16.9760742,17.703125,16.9072266,17.8198242,16.7998047,17.8999023z   " fill="#B72025"/><path d="M7.602356,17.6999512c0.0668945-0.0893555,1.6777344-2.1987305,4.8989258-2.1987305   c2.1665039,0,3.5872192,0.9462891,4.3173218,1.5988159C16.4700928,16.6829224,14.8868408,15,12,15   c-3.2211914,0-4.8320313,2.109375-4.8989258,2.1987305c-0.1665039,0.2216797-0.1230469,0.5268555,0.0981445,0.6953125   c0.0921631,0.0699463,0.2022705,0.0950317,0.3112183,0.0927734C7.5129395,17.887207,7.5368652,17.7871094,7.602356,17.6999512z" fill="#010101" opacity="0.1"/><linearGradient gradientUnits="userSpaceOnUse" id="SVGID_1_" x1="1.1249185" x2="22.875082" y1="6.9288664" y2="17.0711346"><stop offset="0" style="stop-color:#FFFFFF;stop-opacity:0.2"/><stop offset="1" style="stop-color:#FFFFFF;stop-opacity:0"/></linearGradient><path d="M12,0C5.3833008,0,0,5.3833008,0,12s5.3833008,12,12,12s12-5.3833008,12-12S18.6166992,0,12,0z" fill="url(#SVGID_1_)"/></g><g/><g/><g/><g/><g/><g/><g/><g/><g/><g/><g/><g/><g/><g/><g/></svg>
