<?xml version="1.0" ?><svg enable-background="new 0 0 24 24" id="Layer_1" version="1.1" viewBox="0 0 24 24" xml:space="preserve" xmlns="http://www.w3.org/2000/svg" xmlns:xlink="http://www.w3.org/1999/xlink"><g><path d="M12,0C5.3828125,0,0,5.3833008,0,12s5.3828125,12,12,12s12-5.3833008,12-12S18.6171875,0,12,0z" fill="#303C42"/><path d="M12,1c4.7764282,0,8.8400879,3.0655518,10.3563843,7.328186L22,8.5657349V8.5   C22,7.6728516,21.3271484,7,20.5,7h-6c-0.7202759,0-1.3225708,0.510498-1.4664917,1.1885376   C12.7617798,8.0744629,12.4259644,8,12,8s-0.7617798,0.0744629-1.0335083,0.1885376C10.8225708,7.510498,10.2202759,7,9.5,7h-6   C2.6728516,7,2,7.6728516,2,8.5v0.0657349L1.6436157,8.328186C3.1599121,4.0655518,7.2235718,1,12,1z" fill="#FED600"/><path d="M14,8.5C14,8.2241211,14.2246094,8,14.5,8h6C20.7753906,8,21,8.2241211,21,8.5v3   c0,0.8271484-0.6728516,1.5-1.5,1.5h-5c-0.2753906,0-0.5-0.2241211-0.5-0.5V8.5z" fill="#FED600"/><path d="M10,12.5c0,0.2758789-0.2246094,0.5-0.5,0.5h-5C3.6728516,13,3,12.3271484,3,11.5v-3   C3,8.2241211,3.2246094,8,3.5,8h6C9.7753906,8,10,8.2241211,10,8.5V12.5z" fill="#FED600"/><path d="M12,23C5.9345703,23,1,18.0654297,1,12c0-0.9227295,0.126709-1.81427,0.3417358-2.6712646L2,9.7675781V11.5   C2,12.878418,3.1210938,14,4.5,14h5c0.8271484,0,1.5-0.6728516,1.5-1.5V9.5141602C11.0048828,9.4287109,11.0800781,9,12,9   s0.9951172,0.4287109,1,0.5v3c0,0.8271484,0.6728516,1.5,1.5,1.5h5c1.3789063,0,2.5-1.121582,2.5-2.5V9.7675781   l0.6582642-0.4388428C22.873291,10.18573,23,11.0772705,23,12C23,18.0654297,18.0654297,23,12,23z" fill="#FED600"/><circle cx="7" cy="10" fill="#303C42" r="1"/><circle cx="17" cy="10" fill="#303C42" r="1"/><path d="M14,8.5C14,8.2241211,14.2246094,8,14.5,8h6C20.7753906,8,21,8.2241211,21,8.5v3   c0,0.8271484-0.6728516,1.5-1.5,1.5h-5c-0.2753906,0-0.5-0.2241211-0.5-0.5V8.5z" fill="#FFFFFF" opacity="0.3"/><path d="M10,12.5c0,0.2758789-0.2246094,0.5-0.5,0.5h-5C3.6728516,13,3,12.3271484,3,11.5v-3   C3,8.2241211,3.2246094,8,3.5,8h6C9.7753906,8,10,8.2241211,10,8.5V12.5z" fill="#FFFFFF" opacity="0.3"/><path d="M14.1796875,18.1176758c-1.4023438,1.1708984-2.9589844,1.1704102-4.359375,0.0014648   c-0.2119141-0.1757813-0.5263672-0.1489258-0.7041016,0.0634766c-0.1767578,0.2119141-0.1484375,0.5273438,0.0634766,0.7041016   C10.0644531,19.6254883,11.0126953,20,11.9990234,20s1.9355469-0.375,2.8212891-1.1147461   c0.2119141-0.1767578,0.2402344-0.4921875,0.0634766-0.7041016C14.7060547,17.9682617,14.390625,17.940918,14.1796875,18.1176758z" fill="#303C42"/><path d="M23,12c0-0.9227295-0.126709-1.81427-0.3417358-2.6712646L22,9.7675781V11.5   c0,0.5413818-0.1772461,1.0396118-0.4708252,1.4494019C20.5101318,17.970459,16.0718384,21.75,10.75,21.75   c-2.7084961,0-5.1829224-0.9847412-7.0996704-2.6081543c0.0484619,0.0565796,0.100647,0.1096191,0.1502075,0.1652222   c0.1776733,0.1992798,0.3587036,0.3955078,0.5501709,0.5813599c0.0945435,0.0917358,0.1945801,0.1774292,0.2923584,0.2657471   c0.1769409,0.1599731,0.3565063,0.3168945,0.5435791,0.46521c0.1153564,0.0913696,0.2345581,0.1777954,0.3535767,0.2645874   c0.1809082,0.1320801,0.3650513,0.2599487,0.5541382,0.3809814c0.1312866,0.0839844,0.2647705,0.1646729,0.3997803,0.2431641   c0.1880493,0.109436,0.3799438,0.2125854,0.5748901,0.3109131c0.1433105,0.0723267,0.2873535,0.1433105,0.4341431,0.2094116   c0.1982422,0.0893555,0.401123,0.1696777,0.6054077,0.2473755c0.1507568,0.057312,0.3008423,0.1159668,0.4546509,0.166748   c0.2143555,0.0707397,0.4337769,0.1292725,0.6537476,0.1869507c0.1504517,0.0394287,0.2990723,0.083313,0.4519653,0.1164551   c0.2474976,0.0536499,0.5006714,0.0910645,0.7540283,0.1276855c0.1312866,0.0189819,0.2599487,0.0458374,0.3927002,0.0601196   C11.2049561,22.9755859,11.5995483,23,12,23C18.0654297,23,23,18.0654297,23,12z" fill="#010101" opacity="0.1"/><path d="M19.406189,3.8943481c-0.0841675-0.0772095-0.1671753-0.1558228-0.2537842-0.2304688   c0.8601685,1.0187378,1.5335083,2.1970825,1.9813232,3.4815674C21.6437378,7.3851929,22,7.9000854,22,8.5v0.0657349   l0.3563843-0.2375488c-0.1790161-0.5031738-0.3962402-0.9880981-0.6431885-1.454834   c-0.0297852-0.0561523-0.0599365-0.1120605-0.0906982-0.1676025c-0.3497314-0.6343384-0.762207-1.2282104-1.2252808-1.7786865   c-0.0768433-0.0910034-0.1525269-0.1829224-0.2322388-0.2713623c-0.1290283-0.1436768-0.262085-0.2835693-0.3983765-0.4202881   C19.6495972,4.1184692,19.5283203,4.0059814,19.406189,3.8943481z" fill="#010101" opacity="0.1"/><linearGradient gradientUnits="userSpaceOnUse" id="SVGID_1_" x1="1.1248534" x2="22.8751469" y1="6.9288359" y2="17.0711651"><stop offset="0" style="stop-color:#FFFFFF;stop-opacity:0.2"/><stop offset="1" style="stop-color:#FFFFFF;stop-opacity:0"/></linearGradient><path d="M12,0C5.3828125,0,0,5.3833008,0,12s5.3828125,12,12,12s12-5.3833008,12-12S18.6171875,0,12,0z" fill="url(#SVGID_1_)"/></g><g/><g/><g/><g/><g/><g/><g/><g/><g/><g/><g/><g/><g/><g/><g/></svg>