<?xml version="1.0" ?><svg enable-background="new 0 0 24 24" id="Layer_1" version="1.1" viewBox="0 0 24 24" xml:space="preserve" xmlns="http://www.w3.org/2000/svg" xmlns:xlink="http://www.w3.org/1999/xlink"><g><path d="M12,0C5.3828125,0,0,5.3833008,0,12s5.3828125,12,12,12s12-5.3833008,12-12S18.6171875,0,12,0z" fill="#303C42"/><path d="M12,23C5.9345703,23,1,18.0654297,1,12S5.9345703,1,12,1s11,4.9345703,11,11S18.0654297,23,12,23z" fill="#FED600"/><path d="M19.119751,3.630249C20.7561646,5.5509644,21.75,8.0349121,21.75,10.75   c0,6.0654297-4.9345703,11-11,11c-2.7150879,0-5.1990356-0.9938354-7.119751-2.630249C5.6494751,21.4898682,8.6496582,23,12,23   c6.0654297,0,11-4.9345703,11-11C23,8.6496582,21.4898682,5.6494751,19.119751,3.630249z" fill="#010101" opacity="0.1"/><path d="M18.4394531,14.0209961c-0.2646484-0.065918-0.5380859,0.1020508-0.6015625,0.3706055   C17.1933594,17.1049805,14.7929688,19,12,19c-2.796875,0-5.1982422-1.8979492-5.8398438-4.6147461   c-0.0625-0.269043-0.3291016-0.4321289-0.6015625-0.3720703c-0.2685547,0.0634766-0.4345703,0.3330078-0.3711014,0.6015625   C5.9355469,17.7856445,8.7373047,20,12,20c3.2587891,0,6.0585938-2.2109375,6.8105469-5.3769531   C18.8740234,14.3540039,18.7080078,14.0844727,18.4394531,14.0209961z" fill="#303C42"/><path d="M7,13c0.1240234,0,0.2490234-0.0463867,0.3457031-0.1386719l2.9326172-2.8007813   C10.7431641,9.6108398,11,9.012207,11,8.375C11,7.0654297,9.9033203,6,8.5556641,6C7.9345703,6,7.4042969,6.3461914,7,6.7451172   C6.5957031,6.3461914,6.0654297,6,5.4443359,6C4.0966797,6,3,7.0654297,3,8.375   c0,0.637207,0.2568359,1.2358398,0.7236328,1.6870117l2.9306641,2.7993164C6.7509766,12.9536133,6.8759766,13,7,13z" fill="#303C42"/><path d="M4,8.375C4,7.6166992,4.6474609,7,5.4443359,7c0.3417969,0,0.7646484,0.293457,1.1601563,0.8056641   c0.1894531,0.2451172,0.6015625,0.2451172,0.7910156,0C7.7910156,7.293457,8.2138672,7,8.5556641,7   C9.3525391,7,10,7.6166992,10,8.375c0,0.3637695-0.1484375,0.706543-0.4150391,0.9643555L7,11.8085938L4.4169922,9.3408203   C4.1484375,9.081543,4,8.7387695,4,8.375z" fill="#EF4438"/><path d="M9.3712769,7.2416992c0.1401367,0.211853,0.2244263,0.4605713,0.2244263,0.7290039   c0,0.3637695-0.1484375,0.706543-0.4150391,0.9643555l-2.5849609,2.4692383L7,11.8085938l2.5849609-2.4692383   C9.8515625,9.081543,10,8.7387695,10,8.375C10,7.9047852,9.7504272,7.4897461,9.3712769,7.2416992z" fill="#010101" opacity="0.1"/><path d="M18.5556641,6C17.9345703,6,17.4042969,6.3461914,17,6.7451172   C16.5957031,6.3461914,16.0654297,6,15.4443359,6C14.0966797,6,13,7.0654297,13,8.375   c0,0.637207,0.2568359,1.2358398,0.7236328,1.6870117l2.9306641,2.7993164C16.7509766,12.9536133,16.8759766,13,17,13   s0.2490234-0.0463867,0.3457031-0.1386719l2.9326172-2.8007813C20.7431641,9.6108398,21,9.012207,21,8.375   C21,7.0654297,19.9033203,6,18.5556641,6z" fill="#303C42"/><path d="M19.5849609,9.3393555L17,11.8085938l-2.5830078-2.4677734C14.1484375,9.081543,14,8.7387695,14,8.375   C14,7.6166992,14.6474609,7,15.4443359,7c0.3417969,0,0.7646484,0.293457,1.1601563,0.8056641   c0.1894531,0.2451172,0.6015625,0.2451172,0.7910156,0C17.7910156,7.293457,18.2138672,7,18.5556641,7   C19.3525391,7,20,7.6166992,20,8.375C20,8.7387695,19.8515625,9.081543,19.5849609,9.3393555z" fill="#EF4438"/><path d="M19.3712769,7.2416992c0.1401367,0.211853,0.2244263,0.4605713,0.2244263,0.7290039   c0,0.3637695-0.1484375,0.706543-0.4150391,0.9643555l-2.5849609,2.4692383L17,11.8085938l2.5849609-2.4692383   C19.8515625,9.081543,20,8.7387695,20,8.375C20,7.9047852,19.7504272,7.4897461,19.3712769,7.2416992z" fill="#010101" opacity="0.1"/><linearGradient gradientUnits="userSpaceOnUse" id="SVGID_1_" x1="1.1248534" x2="22.8751469" y1="6.9288359" y2="17.0711651"><stop offset="0" style="stop-color:#FFFFFF;stop-opacity:0.2"/><stop offset="1" style="stop-color:#FFFFFF;stop-opacity:0"/></linearGradient><path d="M12,0C5.3828125,0,0,5.3833008,0,12s5.3828125,12,12,12s12-5.3833008,12-12S18.6171875,0,12,0z" fill="url(#SVGID_1_)"/></g><g/><g/><g/><g/><g/><g/><g/><g/><g/><g/><g/><g/><g/><g/><g/></svg>