<?xml version="1.0" ?><svg width="100" height="100" enable-background="new 0 0 24 24" id="Layer_1" version="1.1" viewBox="0 0 24 24" xml:space="preserve" xmlns="http://www.w3.org/2000/svg" xmlns:xlink="http://www.w3.org/1999/xlink"><g><path d="M12,0C5.3828125,0,0,5.3833008,0,12s5.3828125,12,12,12s12-5.3833008,12-12S18.6171875,0,12,0z" fill="#303C42"/><path d="M12,23C5.9345703,23,1,18.0654297,1,12S5.9345703,1,12,1s11,4.9345703,11,11S18.0654297,23,12,23z" fill="#FED600"/><path d="M19.119751,3.630249C20.7561646,5.5509644,21.75,8.0349121,21.75,10.75   c0,6.0654297-4.9345703,11-11,11c-2.7150879,0-5.1990356-0.9938354-7.119751-2.630249C5.6494751,21.4898682,8.6496582,23,12,23   c6.0654297,0,11-4.9345703,11-11C23,8.6496582,21.4898682,5.6494751,19.119751,3.630249z" fill="#010101" opacity="0.1"/><path d="M20.5,12h-17C3.2236328,12,3,12.2236328,3,12.5c0,5.0092773,4.7431641,8.5,9,8.5s9-3.4907227,9-8.5   C21,12.2236328,20.7763672,12,20.5,12z" fill="#303C42"/><path d="M9.1120605,19.4279175c0.7637329-0.5092163,1.7780762-0.5801392,2.6359863-0.0797729   c0.15625,0.0908203,0.3476563,0.0908203,0.5039063,0c0.8692627-0.5056763,1.914856-0.4078979,2.6445923,0.0761719   C13.9536743,19.7950439,12.963623,20,12,20C11.0393066,20,10.0523071,19.7965088,9.1120605,19.4279175z" fill="#E53A35"/><path d="M15.894043,18.9577637C14.8639526,17.9893188,13.3057861,17.7142334,12,18.3496094   c-1.2874146-0.6257935-2.8052368-0.3880005-3.8886108,0.6109619C5.9398804,17.7761841,4.2124023,15.6571655,4.0185547,13   h15.9628906C19.7877808,15.6549683,18.0629883,17.7727661,15.894043,18.9577637z" fill="#B72025"/><path d="M5.4630289,15.4536686c-0.1641617-0.6165514,0.3393016-1.2129459,0.9773326-1.2129459   h13.3178787C19.8654175,13.8403931,19.9500732,13.4302368,19.9814453,13H4.0185547   c0.1531982,2.0996094,1.2705688,3.8544312,2.8012695,5.0864258C6.2015157,17.3174706,5.723989,16.4337711,5.4630289,15.4536686z" fill="#010101" opacity="0.1"/><path d="M5.0332031,10.6796875C5.109375,10.878418,5.2988281,11,5.5,11   c0.0595703,0,0.1201172-0.0107422,0.1796875-0.0332031L12,8.5358887l6.3203125,2.4309082   C18.3798828,10.9892578,18.4404297,11,18.5,11c0.2011719,0,0.390625-0.121582,0.4667969-0.3203125   c0.0986328-0.2578125-0.0293045-0.5473633-0.2871094-0.6464844L13.3933716,8l5.2863159-2.0332031   c0.2578049-0.0991211,0.3857422-0.3886719,0.2871094-0.6464844c-0.0986328-0.2573242-0.3857422-0.3852539-0.6464844-0.2871094   L12,7.4641113L5.6796875,5.0332031c-0.2607422-0.0976563-0.546875,0.0297852-0.6464844,0.2871094   C4.9345703,5.578125,5.0624924,5.8676758,5.3203125,5.9667969L10.6066284,8l-5.2863159,2.0332031   C5.0624924,10.1323242,4.9345703,10.421875,5.0332031,10.6796875z" fill="#303C42"/><linearGradient gradientUnits="userSpaceOnUse" id="SVGID_1_" x1="1.1248534" x2="22.8751469" y1="6.9288359" y2="17.0711651"><stop offset="0" style="stop-color:#FFFFFF;stop-opacity:0.2"/><stop offset="1" style="stop-color:#FFFFFF;stop-opacity:0"/></linearGradient><path d="M12,0C5.3828125,0,0,5.3833008,0,12s5.3828125,12,12,12s12-5.3833008,12-12S18.6171875,0,12,0z" fill="url(#SVGID_1_)"/></g><g/><g/><g/><g/><g/><g/><g/><g/><g/><g/><g/><g/><g/><g/><g/></svg>
