<?xml version="1.0" ?><svg enable-background="new 0 0 24 24" id="Layer_1" version="1.1" viewBox="0 0 24 24" xml:space="preserve" xmlns="http://www.w3.org/2000/svg" xmlns:xlink="http://www.w3.org/1999/xlink"><g><path d="M12,0C5.3828125,0,0,5.3833008,0,12s5.3828125,12,12,12s12-5.3833008,12-12S18.6171875,0,12,0z" fill="#303C42"/><path d="M12,23C5.9345703,23,1,18.0654297,1,12S5.9345703,1,12,1s11,4.9345703,11,11S18.0654297,23,12,23z" fill="#FED600"/><path d="M19.119751,3.630249C20.7561646,5.5509644,21.75,8.0349121,21.75,10.75   c0,6.0654297-4.9345703,11-11,11c-2.7150879,0-5.1990356-0.9938354-7.119751-2.630249C5.6494751,21.4898682,8.6496582,23,12,23   c6.0654297,0,11-4.9345703,11-11C23,8.6496582,21.4898682,5.6494751,19.119751,3.630249z" fill="#010101" opacity="0.1"/><circle cx="8" cy="9" fill="#303C42" r="1"/><circle cx="16" cy="9" fill="#303C42" r="1"/><path d="M19.6201172,14.0185547c-0.2226563-0.0541992-0.4550781,0.0493164-0.5644531,0.2514648   C19.0400391,14.2998047,18.6494141,15,17.5,15c-0.6318359,0-1.046875-0.2070313-1.5263672-0.4472656   C15.4550781,14.293457,14.8681641,14,14,14c-0.9749146,0-1.6104736,0.3659058-2,0.8853149   C11.6104736,14.3659058,10.9749146,14,10,14c-0.8681641,0-1.4550781,0.293457-1.9736328,0.5527344   C7.546875,14.7929688,7.1318359,15,6.5,15c-1.1494141,0-1.5400391-0.7001953-1.5527344-0.7236328   c-0.1035156-0.2075195-0.3320313-0.3168945-0.5625-0.2631836C4.1591797,14.0664063,4,14.2680664,4,14.5   C4,14.5449219,4.0624928,19,9.5,19c1.1314697,0,1.9953613-0.4864502,2.5-1.1372681C12.5046387,18.5135498,13.3685303,19,14.5,19   c5.4374924,0,5.5-4.4550781,5.5-4.5C20,14.2709961,19.8427734,14.074707,19.6201172,14.0185547z" fill="#303C42"/><path d="M9.5,18c-2.6582031,0-3.7460938-1.215332-4.1914063-2.2143555C5.6308594,15.9135742,6.0244141,16,6.5,16   c0.8681641,0,1.4550781-0.293457,1.9736328-0.5527344C8.953125,15.2070313,9.3681641,15,10,15c1.2402344,0,1.5,0.815918,1.5,1.5   C11.5,17.2211914,10.7353516,18,9.5,18z" fill="#BF6B29"/><path d="M9.5,17.5c-2.1364746,0-3.2491455-0.7857056-3.838501-1.6126099   c-0.1213379-0.0314331-0.2472534-0.0598145-0.3529053-0.1017456C5.7539063,16.784668,6.8417969,18,9.5,18   c1.2353516,0,2-0.7788086,2-1.5c0-0.1040649-0.0090942-0.2109375-0.0236816-0.3178101   C11.3606567,16.8463745,10.6317139,17.5,9.5,17.5z" fill="#010101" opacity="0.1"/><path d="M14.5,18c-1.2353516,0-2-0.7788086-2-1.5c0-0.684082,0.2597656-1.5,1.5-1.5   c0.6318359,0,1.046875,0.2070313,1.5263672,0.4472656C16.0449219,15.706543,16.6318359,16,17.5,16   c0.4814453,0,0.8779297-0.0883789,1.203125-0.2192383C18.2646484,16.78125,17.1806641,18,14.5,18z" fill="#BF6B29"/><path d="M14.5,17.5c-1.1317139,0-1.8607178-0.6535645-1.9763184-1.317749   C12.5090942,16.2890625,12.5,16.3959351,12.5,16.5c0,0.7211914,0.7646484,1.5,2,1.5   c2.6806641,0,3.7646484-1.21875,4.203125-2.2192383c-0.1044312,0.0420532-0.229187,0.0701904-0.3488159,0.1019287   C17.7689819,16.7114258,16.6553345,17.5,14.5,17.5z" fill="#010101" opacity="0.1"/><linearGradient gradientUnits="userSpaceOnUse" id="SVGID_1_" x1="1.1248534" x2="22.8751469" y1="6.9288359" y2="17.0711651"><stop offset="0" style="stop-color:#FFFFFF;stop-opacity:0.2"/><stop offset="1" style="stop-color:#FFFFFF;stop-opacity:0"/></linearGradient><path d="M12,0C5.3828125,0,0,5.3833008,0,12s5.3828125,12,12,12s12-5.3833008,12-12S18.6171875,0,12,0z" fill="url(#SVGID_1_)"/></g><g/><g/><g/><g/><g/><g/><g/><g/><g/><g/><g/><g/><g/><g/><g/></svg>