<?xml version="1.0" ?><svg width="100" height="100" enable-background="new 0 0 24 24" id="Layer_1" version="1.1" viewBox="0 0 24 24" xml:space="preserve" xmlns="http://www.w3.org/2000/svg" xmlns:xlink="http://www.w3.org/1999/xlink"><g><path d="M12,0C5.3833008,0,0,5.3828125,0,12s5.3833008,12,12,12s12-5.3828125,12-12S18.6166992,0,12,0z" fill="#303C42"/><path d="M12,1c0.3781738,0,0.7520142,0.0192871,1.1204834,0.0567627   c-0.5001831,1.2784424-1.4633179,2.8393555-2.7634277,4.4884033C9.8174438,5.2047729,9.1837158,5,8.5,5   C6.0185547,5,4,7.0185547,4,9.5c0,0.682312,0.2041626,1.3146362,0.5432739,1.8535156   c-1.2043457,0.9489746-2.3626709,1.7149658-3.411438,2.2591553C1.053772,13.0848389,1,12.5491943,1,12   C1,5.9345703,5.9345703,1,12,1z" fill="#FED600"/><path d="M5,9.5C5,7.5703125,6.5703125,6,8.5,6C9.878418,6,11,7.1210938,11,8.5c0,1.9296875-1.5703125,3.5-3.5,3.5   C6.121582,12,5,10.8789063,5,9.5z" fill="#5C6771"/><path d="M9.8486938,6.4013062C10.1000977,6.7911377,10.25,7.2525024,10.25,7.75   c0,1.9296875-1.5703125,3.5-3.5,3.5c-0.4973755,0-0.9588013-0.1499023-1.3486938-0.4013062   C5.8466797,11.5393677,6.6188965,12,7.5,12c1.9296875,0,3.5-1.5703125,3.5-3.5   C11,7.6186523,10.5393066,6.8465576,9.8486938,6.4013062z" fill="#010101" opacity="0.1"/><path d="M12,23c-5.1567383,0-9.4839478-3.5715942-10.668335-8.3676758   c1.1821289-0.5836792,2.4998169-1.4420166,3.8632202-2.5195923C5.8122559,12.65802,6.6135864,13,7.5,13   c2.4814453,0,4.5-2.0185547,4.5-4.5c0-0.8848267-0.3408813-1.6847534-0.8844604-2.3016968   c1.4414063-1.824707,2.4916992-3.5650024,3.0099487-4.9879761C19.1766968,2.2037354,23,6.6619263,23,12   C23,18.0654297,18.0654297,23,12,23z" fill="#FED600"/><path d="M19.0508423,3.5727539c1.5811157,1.9042358,2.5333252,4.3480835,2.5333252,7.0114136   c0,6.0654297-4.9345703,11-11,11c-2.6638794,0-5.1017456-0.9584351-7.0040283-2.5411377C5.5959473,21.4559326,8.6159058,23,12,23   c6.0654297,0,11-4.9345703,11-11C23,8.6170044,21.4614258,5.5910034,19.0508423,3.5727539z" fill="#010101" opacity="0.1"/><circle cx="16" cy="9" fill="#303C42" r="1"/><path d="M17.5009766,5.9951172c0,0,0,0-0.0004883,0c-0.2758789,0-0.4985352,0.21875-0.4980469,0.4951172   C16.8925781,6.7197266,15.7514648,6.9990234,14.4995117,7C14.2236328,7,14,7.2246094,14,7.5   C14.0004883,7.7763672,14.2241211,8,14.5,8c0.0327148,0,0.8007813-0.0019531,1.5825195-0.1318359   C17.3554688,7.6552734,18.0004883,7.1953125,18,6.4990234C17.9995117,6.2236328,17.7773438,5.9951172,17.5009766,5.9951172z" fill="#303C42"/><path d="M17.5,16h-11C6.2236328,16,6,16.2236328,6,16.5S6.2236328,17,6.5,17h11c0.2763672,0,0.5-0.2236328,0.5-0.5   S17.7763672,16,17.5,16z" fill="#303C42"/><linearGradient gradientUnits="userSpaceOnUse" id="SVGID_1_" x1="1.1248375" x2="22.8751621" y1="6.9288282" y2="17.0711708"><stop offset="0" style="stop-color:#FFFFFF;stop-opacity:0.2"/><stop offset="1" style="stop-color:#FFFFFF;stop-opacity:0"/></linearGradient><path d="M12,0C5.3833008,0,0,5.3828125,0,12s5.3833008,12,12,12s12-5.3828125,12-12S18.6166992,0,12,0z" fill="url(#SVGID_1_)"/></g><g/><g/><g/><g/><g/><g/><g/><g/><g/><g/><g/><g/><g/><g/><g/></svg>
