<?xml version="1.0" ?><svg width="100" height="100" enable-background="new 0 0 24 24" id="Layer_1" version="1.1" viewBox="0 0 24 24" xml:space="preserve" xmlns="http://www.w3.org/2000/svg" xmlns:xlink="http://www.w3.org/1999/xlink"><g><path d="M21.579834,13.9458618C21.8543701,13.3168335,22,12.6647339,22,12   c0-2.4695435-1.8041992-4.5131836-4.1610718-4.9151611C18.5465698,6.4439087,19,5.5275269,19,4.5C19,2.0761719,16.5258789,0,14.5,0   C14.2236328,0,14,0.2236328,14,0.5C14,1.8789063,12.6542969,3,11,3h-1C7.9169312,3,6.2203979,4.8069458,6.0361938,7.0974731   C3.739502,7.5484009,2,9.5731812,2,12c0,0.6647339,0.1456299,1.3168335,0.420166,1.9458618   C0.9609375,14.9359741,0,16.6079102,0,18.5C0,21.5322266,2.4672852,24,5.5,24h13c3.0327148,0,5.5-2.4677734,5.5-5.5   C24,16.6079102,23.0390625,14.9359741,21.579834,13.9458618z" fill="#303C42"/><path d="M18.5,23h-13C3.0185547,23,1,20.9814453,1,18.5c0-1.6820068,0.9383545-3.1338501,2.3087769-3.9060059   c0.0015259-0.0007935,0.0031738-0.0003662,0.0046997-0.0012207c0.00177-0.0009766,0.0026855-0.0028076,0.0044556-0.0037842   C3.9671631,14.2251587,4.7042847,14,5.5,14C5.7763672,14,6,13.7763672,6,13.5S5.7763672,13,5.5,13   c-0.7838135,0-1.5283203,0.1675415-2.2037354,0.4643555C3.1003418,12.9874878,3,12.4969482,3,12c0-2.2060547,1.7944336-4,4-4   c0.2763672,0,0.5-0.2236328,0.5-0.5c0-0.2612305-0.2021484-0.46875-0.4573975-0.491394C7.2496338,5.3127441,8.4899902,4,10,4h1   c1.9876709,0,3.6283569-1.2789917,3.9356689-2.9433594C16.2868042,1.3269653,18,2.7605591,18,4.5C18,5.8789063,16.878418,7,15.5,7   h-1C14.2236328,7,14,7.2236328,14,7.5S14.2236328,8,14.5,8H17c2.2055664,0,4,1.7939453,4,4   c0,0.4969482-0.1003418,0.9874878-0.2962646,1.4643555C20.0283203,13.1675415,19.2838135,13,18.5,13   c-0.2763672,0-0.5,0.2236328-0.5,0.5s0.2236328,0.5,0.5,0.5c0.7957153,0,1.5328369,0.2251587,2.1820679,0.5889893   c0.00177,0.0009766,0.0026855,0.0028076,0.0044556,0.0037842c0.0015259,0.0008545,0.0031738,0.0004272,0.0046997,0.0012207   C22.0616455,15.3661499,23,16.8179932,23,18.5C23,20.9814453,20.9814453,23,18.5,23z" fill="#BF6B29"/><path d="M10,4.9433594h1c1.9876709,0,3.6283569-1.2789917,3.9356689-2.9433594   c1.2354736,0.2471924,2.7577515,1.4706421,3.012085,3.0075073C17.9816895,4.8435059,18,4.6738892,18,4.5   c0-1.7394409-1.7131958-3.1730347-3.0643311-3.4433594C14.6283569,2.7210083,12.9876709,4,11,4h-1   C8.4899902,4,7.2496338,5.3127441,7.0426025,7.008606c0.0807495,0.0071411,0.1522827,0.0379028,0.2176514,0.0778809   C7.7144775,5.8330078,8.7614136,4.9433594,10,4.9433594z" fill="#FFFFFF" opacity="0.2"/><path d="M20.9530029,14.7642822c0.4522095,0.6954346,0.7216797,1.5184937,0.7216797,2.4104004   c0,2.4814453-2.0185547,4.5-4.5,4.5h-13c-0.9018555,0-1.7387085-0.272522-2.4436035-0.7310791   C2.5343018,22.1782227,3.9204102,23,5.5,23h13c2.4814453,0,4.5-2.0185547,4.5-4.5   C23,16.9296875,22.1767578,15.567627,20.9530029,14.7642822z" fill="#010101" opacity="0.1"/><circle cx="8" cy="12" fill="#303C42" r="1"/><circle cx="16" cy="12" fill="#303C42" r="1"/><path d="M16.6352539,16.0234375c-0.262207-0.0722656-0.5415039,0.0800781-0.6166992,0.3457031   C15.5830078,17.9179688,13.9306641,19,12.0004883,19c-1.9008789,0-3.5913086-1.1083984-4.019043-2.6347656   c-0.0742188-0.265625-0.3505859-0.4199219-0.6162109-0.3466797c-0.2661133,0.0742188-0.4213867,0.3505859-0.3466797,0.6162109   C7.5737305,18.6162109,9.6225586,20,12.0004883,20c2.3759766,0,4.4243164-1.3818359,4.980957-3.359375   C17.0561523,16.3740234,16.9013672,16.0986328,16.6352539,16.0234375z" fill="#303C42"/><linearGradient gradientUnits="userSpaceOnUse" id="SVGID_1_" x1="2.9661689" x2="24.4168587" y1="8.8218489" y2="18.8244686"><stop offset="0" style="stop-color:#FFFFFF;stop-opacity:0.2"/><stop offset="1" style="stop-color:#FFFFFF;stop-opacity:0"/></linearGradient><path d="M21.579834,13.9458618C21.8543701,13.3168335,22,12.6647339,22,12   c0-2.4695435-1.8041992-4.5131836-4.1610718-4.9151611C18.5465698,6.4439087,19,5.5275269,19,4.5C19,2.0761719,16.5258789,0,14.5,0   C14.2236328,0,14,0.2236328,14,0.5C14,1.8789063,12.6542969,3,11,3h-1C7.9169312,3,6.2203979,4.8069458,6.0361938,7.0974731   C3.739502,7.5484009,2,9.5731812,2,12c0,0.6647339,0.1456299,1.3168335,0.420166,1.9458618   C0.9609375,14.9359741,0,16.6079102,0,18.5C0,21.5322266,2.4672852,24,5.5,24h13c3.0327148,0,5.5-2.4677734,5.5-5.5   C24,16.6079102,23.0390625,14.9359741,21.579834,13.9458618z" fill="url(#SVGID_1_)"/></g><g/><g/><g/><g/><g/><g/><g/><g/><g/><g/><g/><g/><g/><g/><g/></svg>
