<?xml version="1.0" ?><svg enable-background="new 0 0 24 24" id="Layer_1" version="1.1" viewBox="0 0 24 24" xml:space="preserve" xmlns="http://www.w3.org/2000/svg" xmlns:xlink="http://www.w3.org/1999/xlink"><g><path d="M12,0C5.3833008,0,0,5.3833008,0,12s5.3833008,12,12,12s12-5.3833008,12-12S18.6166992,0,12,0z" fill="#303C42"/><path d="M12,23C5.9345703,23,1,18.0654297,1,12S5.9345703,1,12,1s11,4.9345703,11,11S18.0654297,23,12,23z" fill="#FED600"/><path d="M19.093689,3.6065063c1.6227417,1.9170532,2.6065063,4.3912354,2.6065063,7.093689   c0,6.0654297-4.9345703,11-11,11c-2.7024536,0-5.1766357-0.9837646-7.093689-2.6065063C5.6258545,21.479248,8.6370239,23,12,23   c6.0654297,0,11-4.9345703,11-11C23,8.6370239,21.479248,5.6258545,19.093689,3.6065063z" fill="#010101" opacity="0.1"/><circle cx="8" cy="9" fill="#303C42" r="1"/><circle cx="16" cy="9" fill="#303C42" r="1"/><path d="M12,15h-0.0014648c-4.2006836,0-5.8310547,2.1103516-5.8984375,2.2001953   c-0.1650391,0.2197266-0.1206055,0.5297852,0.0981445,0.6962891c0.21875,0.1660156,0.5322266,0.1235352,0.699707-0.09375   C6.9545898,17.7290039,8.3325195,16,11.9985352,16H12c3.6669922,0.0004883,5.0454102,1.7294922,5.1000977,1.800293   C17.1982422,17.9311523,17.3481445,18,17.5004883,18c0.1044922,0,0.2094727-0.0327148,0.2998047-0.1000977   c0.2207031-0.1655273,0.265625-0.4790039,0.0996094-0.7001953C17.8325195,17.1103516,16.2016602,15.0004883,12,15z" fill="#303C42"/><linearGradient gradientUnits="userSpaceOnUse" id="SVGID_1_" x1="1.1249185" x2="22.875082" y1="6.9288664" y2="17.0711346"><stop offset="0" style="stop-color:#FFFFFF;stop-opacity:0.2"/><stop offset="1" style="stop-color:#FFFFFF;stop-opacity:0"/></linearGradient><path d="M12,0C5.3833008,0,0,5.3833008,0,12s5.3833008,12,12,12s12-5.3833008,12-12S18.6166992,0,12,0z" fill="url(#SVGID_1_)"/></g><g/><g/><g/><g/><g/><g/><g/><g/><g/><g/><g/><g/><g/><g/><g/></svg>