<?xml version="1.0" ?><svg width="100" height="100" enable-background="new 0 0 24 24" id="Layer_1" version="1.1" viewBox="0 0 24 24" xml:space="preserve" xmlns="http://www.w3.org/2000/svg" xmlns:xlink="http://www.w3.org/1999/xlink"><g><path d="M22.7713394,13.2645264C22.9271202,12.5215454,23.0142689,11.7623291,23.0142689,11   c0-6.0654297-4.940979-11-11.014287-11S0.9856946,4.9345703,0.9856946,11c0,0.7643433,0.0878214,1.5235596,0.2434799,2.263916   c-1.7030149,2.1958618-1.6519232,5.3052368,0.2503247,7.2365723C3.0518513,22.097168,5.3477983,24,7.3543072,24   c0.7881317,0,1.4687023-0.2856445,2.0241098-0.8491211c0.4091616-0.4151001,0.5884714-0.869812,0.6138945-1.3451538   C10.6465416,21.9210815,11.3222837,22,11.9999819,22c0.6791649,0,1.3544178-0.0785522,2.0077314-0.1936646   c0.0255461,0.4750977,0.2048559,0.9296265,0.6138334,1.3445435C15.1769543,23.7143555,15.8575249,24,16.6456566,24   c2.0065098,0,4.3024559-1.902832,5.8748093-3.4995117C24.4225292,18.5693359,24.4738655,15.4602661,22.7713394,13.2645264z" fill="#303C42"/><path d="M9.8273315,20.7609253c-0.4998169-1.3909302-1.9550171-2.8619995-3.1408081-4.0592651l-0.3408203-0.3447266   c-0.6230469-0.6328125-1.0478516-1.5219727-1.4228516-2.3066406c-0.4882813-1.0209961-0.9101563-1.9023438-1.7011719-2.034668   c-0.3621826-0.0613403-0.7310181,0.0529175-1.1201782,0.3404541C2.0407104,11.9077759,2,11.4558105,2,11   C2,5.4858398,6.4863281,1,12,1s10,4.4858398,10,10c0,0.4544067-0.0408936,0.9066772-0.1016846,1.355896   c-0.3887329-0.2877808-0.7564087-0.4023438-1.1199951-0.340271c-0.7910156,0.1323242-1.2128906,1.0136719-1.7011719,2.034668   c-0.375,0.784668-0.7998047,1.6738281-1.4228516,2.3066406l-0.3408203,0.3447266   c-1.1860962,1.1976318-2.6419067,2.6691895-3.1412964,4.0604248C12.796875,21.0536499,11.2061768,21.053894,9.8273315,20.7609253z" fill="#FED600"/><circle cx="16" cy="7" fill="#303C42" r="3"/><circle cx="16" cy="7" fill="#BDDDF4" r="2"/><path d="M17.1398315,5.3605957C17.3655396,5.6843872,17.5,6.0761719,17.5,6.5   c0,1.1030273-0.8974609,2-2,2c-0.4239502,0-0.815918-0.1346436-1.1398315-0.3605957C14.7219238,8.6582642,15.321106,9,16,9   c1.1025391,0,2-0.8969727,2-2C18,6.321106,17.6583862,5.72229,17.1398315,5.3605957z" fill="#010101" opacity="0.1"/><circle cx="8" cy="7" fill="#303C42" r="2"/><circle cx="8" cy="7" fill="#BDDDF4" r="1"/><path d="M8.3989258,6.0854492c0.053772,0.1226807,0.0856323,0.2567749,0.0856323,0.3990479   c0,0.5512695-0.4482422,1-1,1c-0.1422729,0-0.2763672-0.0317383-0.3989258-0.0854492C7.2402344,7.7516479,7.5906372,8,8,8   c0.5517578,0,1-0.4487305,1-1C9,6.5908203,8.75177,6.2400513,8.3989258,6.0854492z" fill="#010101" opacity="0.1"/><ellipse cx="12" cy="15" fill="#303C42" rx="4" ry="5"/><path d="M12,11c1.6542969,0,3,1.7944336,3,4c0,0.4761963-0.0733643,0.9268799-0.1883545,1.3508301   C13.8928833,15.8717651,12.9013062,15.9126587,12,16.3496094c-0.8982544-0.4362793-1.8847046-0.4797363-2.810791,0.0047607   C9.0736084,15.9294434,9,15.477478,9,15C9,12.7944336,10.3457031,11,12,11z" fill="#B72025"/><path d="M9.75,15.75c0-2.2055664,1.3457031-4,3-4   c0.5142212,0,0.991272,0.1893311,1.4147339,0.4945679C13.618103,11.4813232,12.8521729,11,12,11c-1.6542969,0-3,1.7944336-3,4   c0,0.477478,0.0736084,0.9294434,0.189209,1.3543701c0.1937866-0.1013794,0.3911743-0.166626,0.5888672-0.2230225   C9.7677002,16.0045776,9.75,15.8806152,9.75,15.75z" fill="#010101" opacity="0.1"/><path d="M12,19c-1.0150146,0-1.9103394-0.6793823-2.4534912-1.7109375   c0.7533569-0.4504395,1.5029297-0.3484497,2.2015381,0.059082c0.15625,0.0908203,0.3476563,0.0908203,0.5039063,0   c0.7012329-0.4094238,1.4605103-0.5040283,2.2029419-0.0614014C13.9119263,18.3196411,13.0158081,19,12,19z" fill="#E53A35"/><path d="M12.4534912,18.5059204c-0.9284668,0-1.753418-0.5723267-2.3036499-1.4588013   c-0.2003174,0.0461426-0.4015503,0.1213379-0.6033325,0.2419434C10.0896606,18.3206177,10.9849854,19,12,19   c0.8187256,0,1.5561523-0.4467773,2.0971069-1.1591187C13.6248779,18.2581787,13.0616455,18.5059204,12.4534912,18.5059204z" fill="#010101" opacity="0.1"/><path d="M8.6689453,22.449707C8.3046875,22.8198242,7.8769531,23,7.3603516,23   c-1.2929688,0-3.1240234-1.1367188-5.1542969-3.2006836c-1.6767578-1.7050781-1.5927734-4.5639648,0.1875-6.3735352   c0.421875-0.4287109,0.6113281-0.4321289,0.6630859-0.4238281c0.2783203,0.0463867,0.6582031,0.8413086,0.9638672,1.4799805   c0.4091797,0.8549805,0.8720703,1.824707,1.6123047,2.5761719l0.34375,0.347168   C7.5966797,19.0419922,9.8173828,21.2832031,8.6689453,22.449707z" fill="#FED600"/><path d="M8.6689453,21.449707C8.3046875,21.8198242,7.8769531,22,7.3603516,22   c-1.2929688,0-3.1240234-1.1367188-5.1542969-3.2006836c-0.6785889-0.6900024-1.0540161-1.5708008-1.1601563-2.4927368   c-0.1322021,1.269165,0.2380371,2.5549927,1.1601563,3.4927368C4.2363281,21.8632813,6.0673828,23,7.3603516,23   c0.5166016,0,0.9443359-0.1801758,1.3085938-0.550293c0.3527222-0.3582764,0.3856201-0.8184814,0.2177124-1.3308716   C8.835144,21.2356567,8.7689819,21.3480835,8.6689453,21.449707z" fill="#010101" opacity="0.1"/><path d="M21.7939453,19.7993164C19.7636719,21.8632813,17.9326172,23,16.6396484,23   c-0.5166016,0-0.9443359-0.1801758-1.3085938-0.550293c-1.1484375-1.1665039,1.0722656-3.4077148,2.6923828-5.0444336   l0.34375-0.347168c0.7402344-0.7514648,1.203125-1.7211914,1.6123047-2.5761719   c0.3056641-0.6386719,0.6855469-1.4335938,0.9638672-1.4799805c0.0058594-0.0009766,0.0126953-0.0014648,0.0224609-0.0014648   c0.0732422,0,0.2685547,0.046875,0.640625,0.425293C23.3867188,15.2353516,23.4707031,18.0942383,21.7939453,19.7993164z" fill="#FED600"/><path d="M21.7939453,18.7993164C19.7636719,20.8632813,17.9326172,22,16.6396484,22   c-0.5166016,0-0.9443359-0.1801758-1.3085938-0.550293c-0.1000366-0.1016235-0.1661987-0.2140503-0.2177124-0.3308716   c-0.1679077,0.5123901-0.1350098,0.9725952,0.2177124,1.3308716C15.6953125,22.8198242,16.1230469,23,16.6396484,23   c1.2929688,0,3.1240234-1.1367188,5.1542969-3.2006836c0.9221191-0.9377441,1.2923584-2.2235718,1.1601563-3.4927368   C22.8479614,17.2285156,22.4725342,18.109314,21.7939453,18.7993164z" fill="#010101" opacity="0.1"/><g><path d="M15.1422119,19.0938721C13.8788452,19.6703491,12.4793091,20,11,20    c-0.5524292,0-1.0917358-0.0524292-1.6193237-0.1390991c0.182312,0.3013306,0.3397827,0.6025391,0.4466553,0.9000244    c1.3612671,0.2892456,2.9273682,0.2900391,4.2905273,0.0095215c0.0193481-0.0041504,0.0377808-0.010376,0.0570679-0.0146484    C14.3731079,20.2067871,14.722168,19.6459961,15.1422119,19.0938721z" fill="#010101" opacity="0.1"/><path d="M21.8878174,9.5842285c-0.0332642-0.2329712-0.0670776-0.4659424-0.1162109-0.6934204    c-0.0282593-0.1311646-0.0664673-0.2583618-0.0998535-0.3875122c-0.0537109-0.2073364-0.1079712-0.4144287-0.1743774-0.616272    c-0.0421753-0.1283569-0.0918579-0.2530518-0.1390381-0.3790894c-0.0741577-0.1975708-0.1504517-0.3939819-0.2365112-0.5853882    c-0.0533447-0.1188354-0.1115723-0.2348633-0.1693726-0.3511353c-0.0958862-0.192688-0.1958008-0.3827515-0.3035278-0.5681152    c-0.0610962-0.1053467-0.1248169-0.2089844-0.1896362-0.3118286c-0.1203003-0.1906128-0.246521-0.3770142-0.3790283-0.5587158    c-0.0645142-0.088562-0.1295776-0.1766357-0.1968384-0.2630005c-0.1482544-0.1898193-0.3039551-0.373291-0.46521-0.5518799    c-0.0629272-0.0698242-0.1247559-0.140564-0.1895752-0.2085571c-0.1807861-0.18927-0.3703613-0.369812-0.5653076-0.5446167    c-0.0327759-0.0294189-0.0646362-0.0599365-0.0977783-0.0889282C20.0780029,5.2278442,21,7.5037231,21,10    c0,0.6901245-0.0699463,1.3639526-0.203064,2.0147095c0.3572998-0.0550537,0.718689,0.0582275,1.1005859,0.3406982    c0.0008545-0.0063477,0.0020752-0.0125732,0.0029297-0.0189209c0.0244751-0.182251,0.043335-0.3652954,0.0597534-0.5485229    C21.9805908,11.5272217,22,11.2659912,22,11c0-0.3618774-0.0216675-0.7184448-0.0592651-1.0701904    C21.9282837,9.8129883,21.9043579,9.6998291,21.8878174,9.5842285z" fill="#010101" opacity="0.1"/></g><linearGradient gradientUnits="userSpaceOnUse" id="SVGID_1_" x1="1.3618262" x2="23.8877907" y1="7.7589602" y2="18.262989"><stop offset="0" style="stop-color:#FFFFFF;stop-opacity:0.2"/><stop offset="1" style="stop-color:#FFFFFF;stop-opacity:0"/></linearGradient><path d="M22.7713394,13.2645264C22.9271202,12.5215454,23.0142689,11.7623291,23.0142689,11   c0-6.0654297-4.940979-11-11.014287-11S0.9856946,4.9345703,0.9856946,11c0,0.7643433,0.0878214,1.5235596,0.2434799,2.263916   c-1.7030149,2.1958618-1.6519232,5.3052368,0.2503247,7.2365723C3.0518513,22.097168,5.3477983,24,7.3543072,24   c0.7881317,0,1.4687023-0.2856445,2.0241098-0.8491211c0.4091616-0.4151001,0.5884714-0.869812,0.6138945-1.3451538   C10.6465416,21.9210815,11.3222837,22,11.9999819,22c0.6791649,0,1.3544178-0.0785522,2.0077314-0.1936646   c0.0255461,0.4750977,0.2048559,0.9296265,0.6138334,1.3445435C15.1769543,23.7143555,15.8575249,24,16.6456566,24   c2.0065098,0,4.3024559-1.902832,5.8748093-3.4995117C24.4225292,18.5693359,24.4738655,15.4602661,22.7713394,13.2645264z" fill="url(#SVGID_1_)"/></g><g/><g/><g/><g/><g/><g/><g/><g/><g/><g/><g/><g/><g/><g/><g/></svg>
