<?xml version="1.0" ?><svg enable-background="new 0 0 24 24" id="Layer_1" version="1.1" viewBox="0 0 24 24" xml:space="preserve" xmlns="http://www.w3.org/2000/svg" xmlns:xlink="http://www.w3.org/1999/xlink"><g><path d="M12,0C5.3833008,0,0,5.3833008,0,12s5.3833008,12,12,12s12-5.3833008,12-12S18.6166992,0,12,0z" fill="#303C42"/><path d="M12,23C5.9345703,23,1,18.0654297,1,12S5.9345703,1,12,1s11,4.9345703,11,11S18.0654297,23,12,23z" fill="#FED600"/><path d="M19.2507324,3.7492676C20.9562378,5.687561,22,8.2213745,22,11   c0,6.0654297-4.9345703,11-11,11c-2.7786255,0-5.312439-1.0437622-7.2507324-2.7492676C5.7666626,21.543457,8.7131958,23,12,23   c6.0654297,0,11-4.9345703,11-11C23,8.7131958,21.543457,5.7666626,19.2507324,3.7492676z" fill="#010101" opacity="0.1"/><path d="M16,10.5c0.5795898,0,1-0.6308594,1-1.5s-0.4204102-1.5-1-1.5S15,8.1308594,15,9S15.4204102,10.5,16,10.5z" fill="#303C42"/><path d="M8,10.5c0.5795898,0,1-0.6308594,1-1.5S8.5795898,7.5,8,7.5S7,8.1308594,7,9S7.4204102,10.5,8,10.5z" fill="#303C42"/><path d="M12,13c-3.3642578,0-6,1.7568359-6,4s2.6357422,4,6,4s6-1.7568359,6-4S15.3642578,13,12,13z" fill="#303C42"/><path d="M9.2597656,19.4903564C9.6862793,19.15271,10.0751343,19,10.5,19   c0.4267578,0,0.8686523,0.2358398,1.2490234,0.456543c0.1552734,0.0908203,0.3466797,0.0908203,0.5019531,0   C12.6313477,19.2358398,13.0732422,19,13.5,19c0.4345093,0,0.8275757,0.1567993,1.2446899,0.4888916   C13.9506226,19.8095093,13.0050659,20,12,20C10.9967041,20,10.0529175,19.8099976,9.2597656,19.4903564z" fill="#E53A35"/><path d="M15.6880493,18.9855347C15.1724854,18.496521,14.4730225,18,13.5,18   c-0.5644531,0-1.0634766,0.2133789-1.5,0.4501953C11.5634766,18.2133789,11.0644531,18,10.5,18   c-0.9511719,0-1.6486206,0.484375-2.18573,0.9871826C7.5100098,18.4525757,7,17.7571411,7,17c0-1.6259766,2.2895508-3,5-3   s5,1.3740234,5,3C17,17.7564087,16.4908447,18.4511719,15.6880493,18.9855347z" fill="#B72025"/><path d="M7.75,17.75c0-1.6259766,2.2895508-3,5-3   c1.5557861,0,2.9561157,0.4609985,3.8811646,1.1542358C15.883606,14.8023682,14.0686035,14,12,14c-2.7104492,0-5,1.3740234-5,3   c0,0.6832886,0.4296265,1.3096313,1.1018066,1.8195801C7.87677,18.4862671,7.75,18.1258545,7.75,17.75z" fill="#010101" opacity="0.1"/><linearGradient gradientUnits="userSpaceOnUse" id="SVGID_1_" x1="1.1249185" x2="22.875082" y1="6.9288664" y2="17.0711346"><stop offset="0" style="stop-color:#FFFFFF;stop-opacity:0.2"/><stop offset="1" style="stop-color:#FFFFFF;stop-opacity:0"/></linearGradient><path d="M12,0C5.3833008,0,0,5.3833008,0,12s5.3833008,12,12,12s12-5.3833008,12-12S18.6166992,0,12,0z" fill="url(#SVGID_1_)"/></g><g/><g/><g/><g/><g/><g/><g/><g/><g/><g/><g/><g/><g/><g/><g/></svg>