<?xml version="1.0" ?><svg width="100" height="100" enable-background="new 0 0 24 24" id="Layer_1" version="1.1" viewBox="0 0 24 24" xml:space="preserve" xmlns="http://www.w3.org/2000/svg" xmlns:xlink="http://www.w3.org/1999/xlink"><g><path d="M12,0C5.3833008,0,0,5.3833008,0,12s5.3833008,12,12,12s12-5.3833008,12-12S18.6166992,0,12,0z" fill="#303C42"/><path d="M12,23C5.9345703,23,1,18.0654297,1,12S5.9345703,1,12,1s11,4.9345703,11,11S18.0654297,23,12,23z" fill="#C0CA33"/><path d="M19.119751,3.630249C20.7561646,5.5509644,21.75,8.0349121,21.75,10.75   c0,6.0654297-4.9345703,11-11,11c-2.7150879,0-5.1990356-0.9938354-7.119751-2.630249C5.6494751,21.4898682,8.6496582,23,12,23   c6.0654297,0,11-4.9345703,11-11C23,8.6496582,21.4898682,5.6494751,19.119751,3.630249z" fill="#010101" opacity="0.1"/><circle cx="16" cy="9" fill="#303C42" r="1"/><circle cx="8" cy="9" fill="#303C42" r="1"/><path d="M17.5,13c0.2763672,0,0.5-0.2236328,0.5-0.5S17.7763672,12,17.5,12   c-1.7584839,0-3.2042236,1.3083496-3.4494629,3H9.9494629C9.7042236,13.3083496,8.2584839,12,6.5,12   C6.2236328,12,6,12.2236328,6,12.5S6.2236328,13,6.5,13C7.878418,13,9,14.121582,9,15.5S7.878418,18,6.5,18   C6.2236328,18,6,18.2236328,6,18.5S6.2236328,19,6.5,19c1.7584839,0,3.2042236-1.3083496,3.4494629-3h4.1010742   c0.2452393,1.6916504,1.690979,3,3.4494629,3c0.2763672,0,0.5-0.2236328,0.5-0.5S17.7763672,18,17.5,18   c-1.378418,0-2.5-1.121582-2.5-2.5S16.121582,13,17.5,13z" fill="#303C42"/><linearGradient gradientUnits="userSpaceOnUse" id="SVGID_1_" x1="1.1249185" x2="22.875082" y1="6.9288664" y2="17.0711346"><stop offset="0" style="stop-color:#FFFFFF;stop-opacity:0.2"/><stop offset="1" style="stop-color:#FFFFFF;stop-opacity:0"/></linearGradient><path d="M12,0C5.3833008,0,0,5.3833008,0,12s5.3833008,12,12,12s12-5.3833008,12-12S18.6166992,0,12,0z" fill="url(#SVGID_1_)"/></g><g/><g/><g/><g/><g/><g/><g/><g/><g/><g/><g/><g/><g/><g/><g/></svg>
