<?xml version="1.0" ?><svg width="100" height="100" enable-background="new 0 0 24 24" id="Layer_1" version="1.1" viewBox="0 0 24 24" xml:space="preserve" xmlns="http://www.w3.org/2000/svg" xmlns:xlink="http://www.w3.org/1999/xlink"><g><path d="M19.8173828,18.7246094C21.8730469,16.6494141,23,13.921875,23,11c0-6.0654297-4.9345703-11-11-11   S1,4.9345703,1,11c0,2.921875,1.1269531,5.6494141,3.1826172,7.7246094l-0.5869141,0.9775391   c-0.4091797,0.6816406-0.4189453,1.5009766-0.0273438,2.1933594C3.9599609,22.5869141,4.6679688,23,5.4628906,23   c0.8300781,0,1.5771484-0.4609375,1.9482422-1.2041016l0.0078125-0.015625   c0.0332031,0.4892578,0.2167969,0.9599609,0.5351563,1.3486328C8.4082031,23.6826172,9.0800781,24,9.7958984,24   C10.7871094,24,11.6416016,23.4003906,12,22.5273438C12.3583984,23.4003906,13.2128906,24,14.2041016,24   c0.7158203,0,1.3876953-0.3173828,1.8417969-0.8710938c0.3183594-0.3886719,0.5019531-0.859375,0.5351563-1.3486328   l0.0078125,0.015625C16.9599609,22.5390625,17.7070313,23,18.5371094,23c0.7949219,0,1.5029297-0.4130859,1.8945313-1.1044922   c0.3916016-0.6923828,0.3818359-1.5117188-0.0273438-2.1933594L19.8173828,18.7246094z" fill="#303C42"/><path d="M19.5615234,21.4023438C19.3496094,21.7763672,18.9667969,22,18.5371094,22   c-0.4492188,0-0.8525391-0.25-1.0537109-0.6513672l-0.5459118-1.0917969   c-0.122057-0.2441406-0.4169788-0.3457031-0.6630726-0.2275391c-0.1708984,0.0820313-0.3408203,0.1621094-0.5166016,0.2333984   c-0.2226563,0.0908203-0.3496094,0.3261719-0.3027344,0.5625l0.1044922,0.5205078   c0.0810547,0.4082031-0.0234375,0.8271484-0.2871094,1.1484375S14.6191406,23,14.2041016,23   c-0.7138672,0-1.3056641-0.5351563-1.3759766-1.2441406l-0.03125-0.3193359   c-0.0253906-0.2568359-0.2412109-0.4511719-0.4980469-0.4511719c-0.0029297,0-0.0068359,0-0.0097656,0L12,21l-0.2890625-0.0146484   c-0.0029297,0-0.0068359,0-0.0097656,0c-0.2568359,0-0.4726563,0.1943359-0.4980469,0.4511719l-0.0302734,0.3183594   C11.1015625,22.4648438,10.5097656,23,9.7958984,23c-0.4150391,0-0.8046875-0.1845703-1.0683594-0.5058594   s-0.3681641-0.7402344-0.2871094-1.1474609l0.1044922-0.5214844c0.046875-0.2363281-0.0800781-0.4716797-0.3027344-0.5625   c-0.1757813-0.0712891-0.3457031-0.1513672-0.5166016-0.2333984c-0.2451172-0.1181641-0.5400391-0.0166016-0.6630983,0.2275391   l-0.545886,1.0917969C6.3154297,21.75,5.9121094,22,5.4628906,22c-0.4296875,0-0.8125-0.2236328-1.0244141-0.5976563   s-0.2060547-0.8173828,0.0146484-1.1865234l0.7900391-1.3164063c0.1210938-0.2011719,0.0849609-0.4599609-0.0859375-0.6210938   C3.1210938,16.3623047,2,13.7773438,2,11C2,5.4863281,6.4863281,1,12,1s10,4.4863281,10,10   c0,2.7773438-1.1210938,5.3623047-3.1572266,7.2783203c-0.1708984,0.1611328-0.2070313,0.4199219-0.0859375,0.6210938   l0.7900391,1.3164063C19.7675781,20.5849609,19.7734375,21.0283203,19.5615234,21.4023438z" fill="#F3F3F3"/><path d="M18.7568359,18.8994141c-0.1210938-0.2011719-0.0849609-0.4599609,0.0859375-0.6210938   C20.8789063,16.3623047,22,13.7773438,22,11c0-5.5136719-4.4863281-10-10-10c4.6866455,0,8.5,4.4863281,8.5,10   c0,2.7773438-0.9529419,5.3623047-2.6836548,7.2783203c-0.1452637,0.1611328-0.1759644,0.4199219-0.0730591,0.6210938   l0.6715698,1.3164063c0.187561,0.3691406,0.1925659,0.8125,0.0124512,1.1865234   c-0.0995483,0.206665-0.2459106,0.3613892-0.4163818,0.4638672C18.171936,21.9472046,18.3482666,22,18.5371094,22   c0.4296875,0,0.8125-0.2236328,1.0244141-0.5976563s0.2060547-0.8173828-0.0146484-1.1865234L18.7568359,18.8994141z" fill="#010101" opacity="0.1"/><path d="M2,11c0,2.7773438,1.1210938,5.3623047,3.1572266,7.2783203   c0.1708984,0.1611328,0.2070313,0.4199219,0.0859375,0.6210938L4.453125,20.2158203   c-0.2207031,0.3691406-0.2265625,0.8125-0.0146484,1.1865234S5.0332031,22,5.4628906,22   c0.1888428,0,0.3651733-0.0527954,0.5261841-0.1337891c-0.1704712-0.102478-0.3168335-0.2572021-0.4163818-0.4638672   c-0.1801147-0.3740234-0.1751099-0.8173828,0.0124512-1.1865234l0.6715698-1.3164063   c0.1029053-0.2011719,0.0722046-0.4599609-0.0730591-0.6210938C4.4529419,16.3623047,3.5,13.7773438,3.5,11   C3.5,5.4863281,7.3133545,1,12,1C6.4863281,1,2,5.4863281,2,11z" fill="#FFFFFF" opacity="0.2"/><path d="M19.9882813,9.7451172C19.6367188,8.1542969,18.2011719,7,16.5742188,7c-1.9296875,0-3.5,1.5703125-3.5,3.5   c0,0.9492188,0.3769531,1.8388672,1.0605469,2.5048828c0.0966797,0.0947266,0.2226563,0.1416016,0.3486328,0.1416016   c0.1298828,0,0.2597656-0.0507813,0.3583984-0.1513672c1.2382813-1.2705078,3.5556641-2.21875,4.8261719-2.671875   C19.9052734,10.2392578,20.0429688,9.9912109,19.9882813,9.7451172z" fill="#303C42"/><path d="M14.5224609,11.9248047C14.2314453,11.5097656,14.0742188,11.0166016,14.0742188,10.5   c0-1.3789063,1.1210938-2.5,2.5-2.5c1.015625,0,1.9267578,0.6298828,2.3076172,1.546875   C17.6220703,10.0234375,15.78125,10.8408203,14.5224609,11.9248047z" fill="#5C6771"/><path d="M14.6708984,11.0966797c0-1.3789063,1.1210938-2.5,2.5-2.5   c0.5249023,0,1.0200806,0.1706543,1.4303589,0.4598389C18.1416016,8.4151611,17.3946533,8,16.5742188,8   c-1.3789063,0-2.5,1.1210938-2.5,2.5c0,0.5166016,0.1572266,1.0097656,0.4482422,1.4248047   c0.0730591-0.0629272,0.1635742-0.1157837,0.2402954-0.1768799C14.7058105,11.5375977,14.6708984,11.3201904,14.6708984,11.0966797   z" fill="#010101" opacity="0.1"/><path d="M9.515625,13.1464844c0.1259766,0,0.2509766-0.046875,0.3486328-0.1416016   c0.6845703-0.6650391,1.0615234-1.5546875,1.0615234-2.5048828c0-1.9296875-1.5703125-3.5-3.5-3.5   c-1.6269531,0-3.0625,1.1542969-3.4140625,2.7451172c-0.0546875,0.2460938,0.0830078,0.4941406,0.3203125,0.578125   c1.2714844,0.453125,3.5878906,1.4013672,4.8251953,2.671875C9.2558594,13.0957031,9.3857422,13.1464844,9.515625,13.1464844z" fill="#303C42"/><path d="M7.4257813,8c1.3789063,0,2.5,1.1210938,2.5,2.5c0,0.5175781-0.1572266,1.0097656-0.4492188,1.4257813   C8.21875,10.8417969,6.3779297,10.0234375,5.1181641,9.546875C5.4990234,8.6298828,6.4101563,8,7.4257813,8z" fill="#5C6771"/><path d="M8.1538086,8.7280273c0.5032959,0,0.9703369,0.1522827,1.3629761,0.4089966   C9.0701294,8.4539795,8.3013916,8,7.4257813,8c-1.015625,0-1.9267578,0.6298828-2.3076172,1.546875   c0.2780151,0.1051636,0.5921021,0.2333984,0.9141846,0.3710327C6.4793091,9.1990967,7.2767334,8.7280273,8.1538086,8.7280273z" fill="#010101" opacity="0.1"/><path d="M14.6103516,14.7314453c-0.3916016-0.390625-1.5429688-0.6357422-2.0205078-0.7236328   c-0.1582031-0.0283203-0.3271484,0.0214844-0.4433594,0.1386719c-0.1162109,0.1162109-0.1679688,0.2822266-0.1386719,0.4433594   c0.0878906,0.4775391,0.3330078,1.6289063,0.7246094,2.0214844c0.2587891,0.2587891,0.5986328,0.3876953,0.9384766,0.3876953   c0.3408203,0,0.6816406-0.1289063,0.9414063-0.3886719c0.5166016-0.5175781,0.5166016-1.3603516-0.0009766-1.8779297   C14.6113281,14.7324219,14.6113281,14.7324219,14.6103516,14.7314453z" fill="#303C42"/><path d="M13.9052734,15.9033203c-0.1289063,0.1289063-0.3369141,0.1298828-0.4619141,0.0048828   c-0.0732422-0.0849609-0.1796875-0.3789063-0.2792969-0.7451172c0.3623047,0.0996094,0.6552734,0.2060547,0.7431641,0.2792969   C14.0322266,15.5703125,14.03125,15.7773438,13.9052734,15.9033203z" fill="#5C6771"/><path d="M11.4101563,14.0078125c-0.4775391,0.0878906-1.6289063,0.3330078-2.0205078,0.7236328   c-0.0009766,0.0009766-0.0009766,0.0009766-0.0009766,0.0009766C8.8710938,15.25,8.8710938,16.0927734,9.3896484,16.6123047   c0.2587891,0.2578125,0.5986328,0.3867188,0.9384766,0.3867188c0.3408203,0,0.6806641-0.1289063,0.9404297-0.3886719   c0.390625-0.3916016,0.6357422-1.5429688,0.7236328-2.0205078c0.0292969-0.1611328-0.0224609-0.3271484-0.1386719-0.4433594   S11.5683594,13.9814453,11.4101563,14.0078125z" fill="#303C42"/><path d="M10.5605469,15.9042969c-0.1289063,0.1289063-0.3369141,0.1279297-0.4638672,0.0009766   c-0.1279297-0.1279297-0.1289063-0.3349609-0.0039063-0.4628906c0.0878906-0.0732422,0.3808594-0.1796875,0.7441406-0.2783203   C10.7373047,15.5283203,10.6308594,15.8212891,10.5605469,15.9042969z" fill="#5C6771"/><linearGradient gradientUnits="userSpaceOnUse" id="SVGID_1_" x1="1.4296227" x2="22.503767" y1="7.6413989" y2="17.4684334"><stop offset="0" style="stop-color:#FFFFFF;stop-opacity:0.2"/><stop offset="1" style="stop-color:#FFFFFF;stop-opacity:0"/></linearGradient><path d="M19.8173828,18.7246094C21.8730469,16.6494141,23,13.921875,23,11c0-6.0654297-4.9345703-11-11-11   S1,4.9345703,1,11c0,2.921875,1.1269531,5.6494141,3.1826172,7.7246094l-0.5869141,0.9775391   c-0.4091797,0.6816406-0.4189453,1.5009766-0.0273438,2.1933594C3.9599609,22.5869141,4.6679688,23,5.4628906,23   c0.8300781,0,1.5771484-0.4609375,1.9482422-1.2041016l0.0078125-0.015625   c0.0332031,0.4892578,0.2167969,0.9599609,0.5351563,1.3486328C8.4082031,23.6826172,9.0800781,24,9.7958984,24   C10.7871094,24,11.6416016,23.4003906,12,22.5273438C12.3583984,23.4003906,13.2128906,24,14.2041016,24   c0.7158203,0,1.3876953-0.3173828,1.8417969-0.8710938c0.3183594-0.3886719,0.5019531-0.859375,0.5351563-1.3486328   l0.0078125,0.015625C16.9599609,22.5390625,17.7070313,23,18.5371094,23c0.7949219,0,1.5029297-0.4130859,1.8945313-1.1044922   c0.3916016-0.6923828,0.3818359-1.5117188-0.0273438-2.1933594L19.8173828,18.7246094z" fill="url(#SVGID_1_)"/></g><g/><g/><g/><g/><g/><g/><g/><g/><g/><g/><g/><g/><g/><g/><g/></svg>
