<?xml version="1.0" ?><svg width="100" height="100" enable-background="new 0 0 24 24" id="Layer_1" version="1.1" viewBox="0 0 24 24" xml:space="preserve" xmlns="http://www.w3.org/2000/svg" xmlns:xlink="http://www.w3.org/1999/xlink"><g><path d="M22.8212891,13.5C23.2373047,13.1328125,23.5,12.5966797,23.5,12   c0-0.5351563-0.2084961-1.0371094-0.5869141-1.4150391c-0.1339111-0.133728-0.2875366-0.237854-0.4485474-0.3273315   C22.0804443,4.4822388,17.3292236,0,11.5,0c-6.0654297,0-11,4.9345703-11,11s4.9345703,11,11,11   c1.3889771,0,2.7279663-0.2677002,4-0.7667847V22c0,1.1025391,0.8969727,2,2,2s2-0.8974609,2-2v-2H21h0.5   c1.1030273,0,2-0.8974609,2-2c0-0.5966797-0.2626953-1.1328125-0.6787109-1.5C23.2373047,16.1328125,23.5,15.5966797,23.5,15   S23.2373047,13.8671875,22.8212891,13.5z" fill="#303C42"/><path d="M11.5,21c-5.5141602,0-10-4.4863281-10-10s4.4858398-10,10-10   c5.1891479,0,9.4367676,3.9080811,9.9394531,9.000061l-2.4423828,0.0018921C17.0688477,10.0029297,15.5,11.5732422,15.5,13.5019531   v6.652771C14.2379761,20.7073975,12.8961182,21,11.5,21z" fill="#FED600"/><path d="M18.5,22c0,0.5517578-0.4487305,1-1,1s-1-0.4482422-1-1v-8.4980469   c0-1.296875,0.9963379-2.3537598,2.2615356-2.4758911c-0.1663208,0.2959595-0.2628174,0.6272583-0.2625122,0.9758911   c0.0002441,0.5995483,0.2716064,1.1320801,0.6915283,1.4985962C18.7709351,13.8674316,18.5,14.4002686,18.5,15   c0,0.4144897,0.1270142,0.7998047,0.3438721,1.1195679C18.0640869,16.3927612,17.5,17.128418,17.5,18   c0,0.7367554,0.4050903,1.3747559,1,1.7218018V22z" fill="#FED600"/><path d="M17.5,22c-0.5512695,0-1-0.4482422-1-1v1c0,0.5517578,0.4487305,1,1,1s1-0.4482422,1-1v-1   C18.5,21.5517578,18.0512695,22,17.5,22z" fill="#010101" opacity="0.1"/><path d="M21.5,19H21h-1.5c-0.5512695,0-1-0.4482422-1-1s0.4487305-1,1-1h2c0.5512695,0,1,0.4482422,1,1   S22.0512695,19,21.5,19z" fill="#FED600"/><path d="M21.5,18.5H21h-1.5c-0.4627075,0-0.8359375-0.3222656-0.9494019-0.75   C18.5288696,17.8318481,18.5,17.911377,18.5,18c0,0.5517578,0.4487305,1,1,1H21h0.5c0.5512695,0,1-0.4482422,1-1   c0-0.088623-0.0288696-0.1681519-0.0505981-0.25C22.3359375,18.1777344,21.9627075,18.5,21.5,18.5z" fill="#010101" opacity="0.1"/><path d="M21.5,16h-1c-0.5512695,0-1-0.4482422-1-1s0.4487305-1,1-1h1c0.5512695,0,1,0.4482422,1,1   S22.0512695,16,21.5,16z" fill="#FED600"/><path d="M21.5,15.5h-1c-0.4627075,0-0.8359375-0.3222656-0.9494019-0.75   C19.5288696,14.8318481,19.5,14.911377,19.5,15c0,0.5517578,0.4487305,1,1,1h1c0.5512695,0,1-0.4482422,1-1   c0-0.088623-0.0288696-0.1681519-0.0505981-0.25C22.3359375,15.1777344,21.9627075,15.5,21.5,15.5z" fill="#010101" opacity="0.1"/><path d="M21.5,13h-1h-0.0014648c-0.5507813,0-0.9990234-0.4482422-0.9995117-0.9990234   c-0.0004883-0.2666016,0.1035156-0.5185547,0.2919922-0.7070313c0.1884766-0.1894531,0.4394531-0.2929688,0.7070313-0.2929688   L21.4995117,11c0,0,0.0009766,0,0.0014648,0c0.2661133,0,0.5170898,0.1035156,0.7055664,0.2919922   C22.3959961,11.4814453,22.5,11.7324219,22.5,12C22.5,12.5517578,22.0512695,13,21.5,13z" fill="#FED600"/><path d="M21.5,12.5h-1h-0.0014648c-0.4636841,0-0.8372803-0.3242188-0.949585-0.7533569   c-0.0221558,0.0835571-0.0501099,0.1657715-0.0499268,0.2543335C19.4995117,12.5517578,19.9477539,13,20.4985352,13H20.5h1   c0.5512695,0,1-0.4482422,1-1c0-0.0883179-0.0279541-0.1699829-0.0499878-0.2531128   C22.3375244,12.1761475,21.9638062,12.5,21.5,12.5z" fill="#010101" opacity="0.1"/><circle cx="15.5" cy="8" fill="#303C42" r="1"/><circle cx="7.5" cy="8" fill="#303C42" r="1"/><path d="M14,15H9c-0.2763672,0-0.5,0.2236328-0.5,0.5S8.7236328,16,9,16h5c0.2763672,0,0.5-0.2236328,0.5-0.5   S14.2763672,15,14,15z" fill="#303C42"/><g><path d="M21.4394531,10.000061c-0.0272217-0.276062-0.0703735-0.546875-0.1192017-0.8154907    c-0.0101929-0.0553589-0.017334-0.1116943-0.0284424-0.166687c-0.0453491-0.2278442-0.1033936-0.4507446-0.1636963-0.6724854    c-0.0323486-0.1170654-0.0643921-0.2341309-0.1008301-0.3494873C20.9712524,7.81604,20.9096069,7.6387939,20.8439331,7.463623    c-0.0645752-0.1702881-0.1341553-0.3379517-0.2076416-0.5036621c-0.0541382-0.1234131-0.1072388-0.2473145-0.1661377-0.367981    c-0.1367188-0.2770996-0.2821045-0.5492554-0.4429321-0.8111572c-0.0062866-0.0103149-0.0115356-0.0212402-0.0178833-0.0314941    c-0.5653076-0.9130249-1.2732544-1.7285767-2.0928345-2.4152832C19.371521,5.0708008,20.25,7.3070068,20.25,9.75    c0,0.0847168-0.0106201,0.166748-0.0126953,0.2509766L21.4394531,10.000061z" fill="#010101" opacity="0.1"/><path d="M15.5,18.2493896C13.9727173,19.1948853,12.1782837,19.75,10.25,19.75    c-2.4337769,0-4.6616211-0.8726807-6.3955688-2.3179321c0.0722656,0.0857544,0.151123,0.1655273,0.2261963,0.2487793    c0.1345825,0.1494141,0.2680054,0.2999878,0.4112549,0.44104c0.1119385,0.1101685,0.2316284,0.2120361,0.3486328,0.3168945    c0.1347656,0.1207886,0.2689819,0.2420044,0.4101563,0.3554688c0.1273193,0.1022949,0.2601318,0.1976929,0.3924561,0.2937622    c0.1428223,0.1036987,0.2865601,0.2060547,0.4348755,0.3022461c0.1378174,0.0893555,0.2790527,0.173645,0.4213867,0.2562866    c0.1540527,0.0894165,0.3103027,0.1751099,0.4694824,0.2564087c0.1450806,0.0741577,0.291748,0.1455078,0.4407959,0.2126465    c0.1679077,0.0755615,0.3392944,0.1446533,0.5119629,0.2110596c0.1480713,0.0570068,0.2960815,0.1140747,0.4474487,0.1641235    c0.1875,0.0619507,0.3793335,0.1138306,0.5715942,0.1647949c0.1439209,0.038208,0.2863159,0.0797119,0.4326782,0.1115723    c0.2218628,0.0481567,0.4486694,0.0820923,0.6757202,0.1152954c0.1234741,0.0180664,0.2446289,0.0430908,0.3695679,0.0565796    C10.7741089,20.977356,11.1343384,21,11.5,21c1.3961182,0,2.7379761-0.2926025,4-0.8452759V18.2493896z" fill="#010101" opacity="0.1"/></g><linearGradient gradientUnits="userSpaceOnUse" id="SVGID_1_" x1="1.5332823" x2="24.2097435" y1="6.3468471" y2="16.9210548"><stop offset="0" style="stop-color:#FFFFFF;stop-opacity:0.2"/><stop offset="1" style="stop-color:#FFFFFF;stop-opacity:0"/></linearGradient><path d="M22.8212891,13.5C23.2373047,13.1328125,23.5,12.5966797,23.5,12   c0-0.5351563-0.2084961-1.0371094-0.5869141-1.4150391c-0.1339111-0.133728-0.2875366-0.237854-0.4485474-0.3273315   C22.0804443,4.4822388,17.3292236,0,11.5,0c-6.0654297,0-11,4.9345703-11,11s4.9345703,11,11,11   c1.3889771,0,2.7279663-0.2677002,4-0.7667847V22c0,1.1025391,0.8969727,2,2,2s2-0.8974609,2-2v-2H21h0.5   c1.1030273,0,2-0.8974609,2-2c0-0.5966797-0.2626953-1.1328125-0.6787109-1.5C23.2373047,16.1328125,23.5,15.5966797,23.5,15   S23.2373047,13.8671875,22.8212891,13.5z" fill="url(#SVGID_1_)"/></g><g/><g/><g/><g/><g/><g/><g/><g/><g/><g/><g/><g/><g/><g/><g/></svg>
