<?xml version="1.0" ?><svg width="100" height="100" enable-background="new 0 0 24 24" id="Layer_1" version="1.1" viewBox="0 0 24 24" xml:space="preserve" xmlns="http://www.w3.org/2000/svg" xmlns:xlink="http://www.w3.org/1999/xlink"><g><path d="M22.4645996,10.2589722C22.0811768,4.4833984,17.3297729,0,11.5,0c-6.0654297,0-11,4.9345703-11,11   s4.9345703,11,11,11c1.4387207,0,2.8613281-0.2893066,4.1816406-0.8309937C15.5653687,21.4223022,15.5,21.7035522,15.5,22   c0,0.5351563,0.2084961,1.0371094,0.5869141,1.4150391C16.4643555,23.7919922,16.9658203,24,17.4990234,24   c0.0004883,0,0.0014648,0,0.0024414,0l2.5014648-0.0019531c1.9282227-0.0009766,3.4970703-1.5712891,3.4970703-3.5V12   C23.5,11.2488403,23.0787964,10.6008301,22.4645996,10.2589722z" fill="#303C42"/><path d="M1.5,11c0-5.5136719,4.4858398-10,10-10c5.1914063,0,9.4399414,3.9107056,9.9399414,9.0060425   C20.3652344,10.0386353,19.5,10.9180298,19.5,12v2h-1.1411133c0.0392456-0.1289673,0.0964355-0.2539063,0.1274414-0.3837891   c0.0356445-0.1494141,0.0009766-0.3056641-0.09375-0.4257813C18.2973633,13.0703125,18.152832,13,18,13H5   c-0.152832,0-0.2973633,0.0703125-0.3920898,0.1894531c-0.0947266,0.1201172-0.1298828,0.2763672-0.0947266,0.4257813   C5.2504883,16.7353516,8.1884766,19,11.5,19c1.6395264,0,3.2712402-0.5889282,4.5633545-1.625061   c0.0392456,0.0410156,0.0727539,0.0874634,0.1153564,0.125061C15.7626953,17.8671875,15.5,18.4033203,15.5,19   c0,0.3721924,0.1113892,0.7147827,0.2891846,1.0135498C14.4547119,20.6485596,12.9896851,21,11.5,21   C5.9858398,21,1.5,16.5136719,1.5,11z" fill="#FED600"/><path d="M15.5,16c0,0.1688232,0.0258789,0.3306274,0.0654297,0.4873047   c-0.12146,0.1029053-0.2457275,0.201416-0.3743896,0.2946167c-1.0236206-0.8215942-2.4650269-1.0270996-3.69104-0.432312   c-1.2261963-0.5965576-2.6727905-0.3875732-3.697998,0.4397583C6.8366699,16.0891113,6.076416,15.1291504,5.6694336,14h11.6591797   c-0.0021973,0.0061035-0.0049438,0.0119629-0.0071411,0.0180664C16.3031616,14.1100464,15.5,14.9585571,15.5,16z" fill="#B72025"/><path d="M8.2043171,14.7106323h7.7800579   c0.3309326-0.3839722,0.8023071-0.6442871,1.3370972-0.6925659C17.3236694,14.0119629,17.326416,14.0061035,17.3286133,14   H5.6694336c0.4069824,1.1291504,1.1672363,2.0891113,2.1325684,2.7893677   c0.0046387-0.0037231,0.0098877-0.0064087,0.0145264-0.0101318c-0.1497436-0.1542568-0.2918324-0.31563-0.4250822-0.4838448   C6.8854499,15.6566133,7.3894129,14.7106323,8.2043171,14.7106323z" fill="#010101" opacity="0.1"/><path d="M14.2547607,17.3474121C13.3963013,17.7683716,12.449646,18,11.5,18   c-0.9832764,0-1.9278564-0.2310791-2.7697754-0.6428223c0.7478638-0.4407349,1.7015991-0.4835205,2.5183105-0.0095215   c0.1552734,0.0917969,0.3476563,0.0917969,0.5029297,0C12.5626831,16.87677,13.5099487,16.9151001,14.2547607,17.3474121z" fill="#E53A35"/><path d="M22.5,20.4980469c0,1.3779297-1.1206055,2.4990234-2.4980469,2.5L17.5004883,23   c0,0-0.0009766,0-0.0014648,0c-0.2661133,0-0.5170898-0.1035156-0.7055664-0.2919922   C16.6040039,22.5185547,16.5,22.2675781,16.5,22c0-0.5517578,0.4487305-1,1-1H18c0.2763672,0,0.5-0.2236328,0.5-0.5   S18.2763672,20,18,20h-0.5c-0.5512695,0-1-0.4482422-1-1s0.4487305-1,1-1H18c0.2763672,0,0.5-0.2236328,0.5-0.5   S18.2763672,17,18,17h-0.5c-0.5512695,0-1-0.4482422-1-1s0.4487305-1,1-1H21c0.2763672,0,0.5-0.2236328,0.5-0.5   S21.2763672,14,21,14h-0.5v-2c0-0.5517578,0.4487305-1,1-1s1,0.4482422,1,1V20.4980469z" fill="#FED600"/><path d="M21.5,11v8.4980469c0,1.3779297-1.1206055,2.4990234-2.4980469,2.5L16.5004883,22H16.5   c0,0.2675781,0.1040039,0.5185547,0.293457,0.7080078C16.9819336,22.8964844,17.2329102,23,17.4990234,23   c0.0004883,0,0.0014648,0,0.0014648,0l2.5014648-0.0019531c1.3774414-0.0009766,2.4980469-1.1220703,2.4980469-2.5V12   C22.5,11.4482422,22.0512695,11,21.5,11z" fill="#010101" opacity="0.1"/><circle cx="15.5" cy="8" fill="#303C42" r="1"/><circle cx="7.5" cy="8" fill="#303C42" r="1"/><g><path d="M21.4399414,10.0060425c-0.0280151-0.2856445-0.0717773-0.5662231-0.1228638-0.8439331    c-0.0077515-0.0415039-0.0126953-0.0839233-0.0209961-0.1252441c-0.0443115-0.2249756-0.1021729-0.444519-0.1611328-0.6635742    c-0.032959-0.1204224-0.0645142-0.241394-0.1018066-0.3599243c-0.0512695-0.1657715-0.1091309-0.3283691-0.1685791-0.4901733    c-0.0690918-0.1849976-0.1418457-0.3681641-0.2213745-0.5477905c-0.0441284-0.1009521-0.0884399-0.2017822-0.1356812-0.3009033    c-0.133606-0.2764893-0.2751465-0.5484009-0.4328003-0.8100586c-0.0032959-0.0054932-0.0062256-0.0112915-0.0095215-0.0167847    c-0.5446777-0.9002686-1.2271118-1.7081299-2.0177612-2.3946533C19.571167,5.2080078,20.5,7.4932861,20.5,10    c0,0.0983887-0.0119019,0.1937256-0.0147095,0.2914429C20.7678833,10.1239624,21.0905151,10.0166626,21.4399414,10.0060425z" fill="#010101" opacity="0.1"/><path d="M12.6259766,20.9325562c1.0977173-0.1296997,2.1669312-0.4449463,3.163208-0.9190063    C15.6113892,19.7147827,15.5,19.3721924,15.5,19c0-0.1282959,0.0177002-0.2520142,0.0408936-0.3735962    C14.0595093,19.4940186,12.3406982,20,10.5,20c-2.4963989,0-4.7723999-0.9221802-6.5245361-2.4348145    c0.0288696,0.03302,0.0592041,0.0646973,0.088501,0.0973511c0.1750488,0.1951904,0.3557129,0.3850098,0.5452881,0.56604    c0.0678711,0.0646362,0.1384277,0.1263428,0.2080688,0.1891479c0.1790161,0.1616211,0.362915,0.317749,0.5532227,0.4663086    c0.0856323,0.0667725,0.1730347,0.1312256,0.2609253,0.1952515c0.182312,0.1330566,0.3694458,0.2597046,0.56073,0.3804321    c0.102417,0.0645142,0.2054443,0.1278687,0.3103638,0.1887207c0.1856689,0.1079102,0.3760986,0.2080078,0.5690918,0.3040771    c0.116333,0.0578003,0.2322998,0.1161499,0.3511353,0.1694336c0.190918,0.0858765,0.3869019,0.1619873,0.5839844,0.2359619    c0.1264648,0.0474243,0.251709,0.097229,0.3805542,0.1395874c0.2017212,0.0663452,0.4085693,0.1206055,0.6157227,0.1741943    c0.1292725,0.0333862,0.2565308,0.0716553,0.3877563,0.0999146c0.227356,0.0490723,0.460022,0.0828857,0.6929321,0.1161499    c0.1157227,0.0165405,0.229126,0.0404663,0.3461304,0.0529785C10.7816162,20.9783325,11.1381836,21,11.5,21    c0.3712769,0,0.7409058-0.0220337,1.1074829-0.0646362C12.6137085,20.9346924,12.619751,20.9332275,12.6259766,20.9325562z" fill="#010101" opacity="0.1"/></g><linearGradient gradientUnits="userSpaceOnUse" id="SVGID_1_" x1="1.5332704" x2="25.293808" y1="6.3468723" y2="17.4265938"><stop offset="0" style="stop-color:#FFFFFF;stop-opacity:0.2"/><stop offset="1" style="stop-color:#FFFFFF;stop-opacity:0"/></linearGradient><path d="M22.4645996,10.2589722C22.0811768,4.4833984,17.3297729,0,11.5,0c-6.0654297,0-11,4.9345703-11,11   s4.9345703,11,11,11c1.4387207,0,2.8613281-0.2893066,4.1816406-0.8309937C15.5653687,21.4223022,15.5,21.7035522,15.5,22   c0,0.5351563,0.2084961,1.0371094,0.5869141,1.4150391C16.4643555,23.7919922,16.9658203,24,17.4990234,24   c0.0004883,0,0.0014648,0,0.0024414,0l2.5014648-0.0019531c1.9282227-0.0009766,3.4970703-1.5712891,3.4970703-3.5V12   C23.5,11.2488403,23.0787964,10.6008301,22.4645996,10.2589722z" fill="url(#SVGID_1_)"/></g><g/><g/><g/><g/><g/><g/><g/><g/><g/><g/><g/><g/><g/><g/><g/></svg>
