<?xml version="1.0" ?><svg enable-background="new 0 0 24 24" id="Layer_1" version="1.1" viewBox="0 0 24 24" xml:space="preserve" xmlns="http://www.w3.org/2000/svg" xmlns:xlink="http://www.w3.org/1999/xlink"><g><path d="M12,0C5.3833008,0,0,5.3833008,0,12s5.3833008,12,12,12s12-5.3833008,12-12S18.6166992,0,12,0z" fill="#303C42"/><path d="M12,23C5.9345703,23,1,18.0654297,1,12S5.9345703,1,12,1s11,4.9345703,11,11S18.0654297,23,12,23z" fill="#FED600"/><path d="M19.119751,3.630249C20.7561646,5.5509644,21.75,8.0349121,21.75,10.75   c0,6.0654297-4.9345703,11-11,11c-2.7150879,0-5.1990356-0.9938354-7.119751-2.630249C5.6494751,21.4898682,8.6496582,23,12,23   c6.0654297,0,11-4.9345703,11-11C23,8.6496582,21.4898682,5.6494751,19.119751,3.630249z" fill="#010101" opacity="0.1"/><path d="M18.5004883,14.0073242L5.5004883,14H5.5c-0.152832,0-0.2973633,0.0698242-0.3920898,0.1894531   c-0.0947266,0.1201172-0.1298828,0.2768555-0.0947266,0.425293c0.3685303,1.5588989,1.4904785,3.0949097,3.0137939,4.1600952   C8.1655884,20.7110596,9.7167969,22,12,22c2.282959,0,3.8341064-1.2887573,3.9729614-3.2246704   c1.5210571-1.05896,2.6430054-2.5924072,3.0133667-4.1522827c0.0356445-0.1489258,0.0009766-0.3056641-0.09375-0.4257813   C18.7978516,14.0776367,18.6533203,14.0073242,18.5004883,14.0073242z" fill="#303C42"/><path d="M12,21c-1.3310547,0-2.8774414-0.605957-2.9931641-2.2944336C9.5375977,18.2128906,9.9926758,18,10.5,18   c0.3430786,0,0.6760864,0.0951538,1,0.2421265V19c0,0.2763672,0.2236328,0.5,0.5,0.5s0.5-0.2236328,0.5-0.5v-0.7578735   C12.8239136,18.0951538,13.1569214,18,13.5,18c0.5141602,0,0.96875,0.2124023,1.4931641,0.7041016   C14.878418,20.3935547,13.331543,21,12,21z" fill="#E53A35"/><path d="M14.9136353,19.1380615c0.0340576-0.1386719,0.0688477-0.2769165,0.0795288-0.43396   C14.46875,18.2124023,14.0141602,18,13.5,18c-0.3430786,0-0.6760864,0.0951538-1,0.2421265v0.5   C12.8239136,18.5951538,13.1569214,18.5,13.5,18.5C13.9874268,18.5,14.4230957,18.6992798,14.9136353,19.1380615z" fill="#FFFFFF" opacity="0.2"/><path d="M10.5,18.5c0.3430786,0,0.6760864,0.0951538,1,0.2421265v-0.5   C11.1760864,18.0951538,10.8430786,18,10.5,18c-0.5073242,0-0.9624023,0.2128906-1.4931641,0.7055664   c0.0107422,0.1571045,0.0455933,0.2954712,0.079834,0.4342041C9.5829468,18.6998291,10.0189209,18.5,10.5,18.5z" fill="#FFFFFF" opacity="0.2"/><path d="M15.5344849,17.8468628C15.0352783,17.4071655,14.3803711,17,13.5,17   c-0.5180664,0-1.0214844,0.1176758-1.5,0.3500977C11.5214844,17.1176758,11.0180664,17,10.5,17   c-0.8721924,0-1.5290527,0.4078369-2.0321655,0.8475342c-1.0529785-0.7727051-1.87677-1.7828979-2.2891235-2.8470459   l11.6420898,0.0063477C17.4078369,16.0712891,16.5847168,17.0786743,15.5344849,17.8468628z" fill="#B72025"/><path d="M7.9954143,17.290493c-0.5448971-0.6453724-0.0667577-1.6370316,0.7778831-1.63657   l8.7287169,0.0047684c0.1195068-0.2144775,0.2330322-0.4308472,0.3187866-0.6518555L6.1787109,15.0004883   c0.4123535,1.0641479,1.236145,2.0743408,2.2891235,2.8470459c0.008728-0.0076294,0.0193481-0.0144043,0.0281372-0.0219727   C8.3184614,17.6536808,8.1511192,17.4749107,7.9954143,17.290493z" fill="#010101" opacity="0.1"/><circle cx="8" cy="9" fill="#303C42" r="1"/><circle cx="16" cy="9" fill="#303C42" r="1"/><linearGradient gradientUnits="userSpaceOnUse" id="SVGID_1_" x1="1.1249185" x2="22.875082" y1="6.9288664" y2="17.0711346"><stop offset="0" style="stop-color:#FFFFFF;stop-opacity:0.2"/><stop offset="1" style="stop-color:#FFFFFF;stop-opacity:0"/></linearGradient><path d="M12,0C5.3833008,0,0,5.3833008,0,12s5.3833008,12,12,12s12-5.3833008,12-12S18.6166992,0,12,0z" fill="url(#SVGID_1_)"/></g><g/><g/><g/><g/><g/><g/><g/><g/><g/><g/><g/><g/><g/><g/><g/></svg>