<?xml version="1.0" ?><svg width="100" height="100" enable-background="new 0 0 24 24" id="Layer_1" version="1.1" viewBox="0 0 24 24" xml:space="preserve" xmlns="http://www.w3.org/2000/svg" xmlns:xlink="http://www.w3.org/1999/xlink"><g><path d="M22.5,1c-0.1953125,0-0.3818359,0.0371094-0.5527344,0.1054688C21.7734375,0.46875,21.1904297,0,20.5,0   s-1.2734375,0.46875-1.4472656,1.1054688C18.8818359,1.0371094,18.6953125,1,18.5,1C17.6728516,1,17,1.6728516,17,2.5v1.2786865   C15.2161865,2.6121826,13.1601563,2,11,2C4.9345703,2,0,6.9345703,0,13s4.9345703,11,11,11s11-4.9345703,11-11   c0-0.7981567-0.1031494-1.5889282-0.2731934-2.3637695C23.0643921,10.0195923,24,8.6744385,24,7.1074219V2.5   C24,1.6728516,23.3271484,1,22.5,1z" fill="#303C42"/><path d="M21,13c0,5.5136719-4.4863281,10-10,10S1,18.5136719,1,13S5.4863281,3,11,3   c2.1809082,0,4.2429199,0.6923218,6,2.0146484v0.1894531l-0.2451172-0.2705078   c-0.6308594-0.6289063-1.6533203-0.6289063-2.2822266,0c-0.5878906,0.5888672-0.6337891,1.5195313-0.0722656,2.2021484   l2.7128906,2.6806641C17.9814453,10.8769531,19.2382813,11,20.1074219,11c0.2258911,0,0.4442139-0.0296021,0.659668-0.0667114   C20.9099121,11.6114502,21,12.302063,21,13z" fill="#FED600"/><path d="M20.7670898,10.9332886C20.5516357,10.9703979,20.333313,11,20.1074219,11   c-0.1265259,0-0.2628784-0.0043335-0.4034424-0.012085C19.7262573,11.2412109,19.75,11.4945068,19.75,11.75   c0,5.5136719-4.4863281,10-10,10c-2.43927,0-4.6752319-0.8805542-6.4128418-2.3371582C5.1730957,21.6029053,7.9255981,23,11,23   c5.5136719,0,10-4.4863281,10-10C21,12.302063,20.9099121,11.6114502,20.7670898,10.9332886z" fill="#010101" opacity="0.1"/><path d="M23,7.1074219C23,8.7021484,21.7021484,10,20.1074219,10   c-1.0732422,0-1.7578125-0.2519531-2.2558594-0.8554688l-2.7128906-2.6806641   C14.9384766,6.21875,14.9560547,5.8642578,15.1796875,5.640625c0.1220703-0.1220703,0.2832031-0.1816406,0.4404297-0.1816406   c0.1523438,0,0.3017578,0.0556641,0.4111328,0.1640625l1.0986328,1.2128906   c0.1386719,0.1533203,0.3564453,0.2050781,0.5498047,0.1308594S18,6.7070313,18,6.5v-4C18,2.2246094,18.2246094,2,18.5,2   S19,2.2246094,19,2.5v2C19,4.7763672,19.2236328,5,19.5,5S20,4.7763672,20,4.5v-3C20,1.2246094,20.2246094,1,20.5,1   S21,1.2246094,21,1.5v3C21,4.7763672,21.2236328,5,21.5,5S22,4.7763672,22,4.5v-2C22,2.2246094,22.2246094,2,22.5,2   S23,2.2246094,23,2.5V7.1074219z" fill="#FED600"/><path d="M22.5,2c-0.0928955,0-0.1751099,0.0324097-0.2497559,0.0768433V6.357666   c0,1.5947266-1.2978516,2.8925781-2.8925781,2.8925781c-1.0732422,0-1.7578125-0.2519531-2.2558594-0.8554688L15.1281128,6.444519   c0.0045776,0.0060425,0.0057373,0.0134277,0.0105591,0.0193481l2.7128906,2.6806641   C18.3496094,9.7480469,19.0341797,10,20.1074219,10C21.7021484,10,23,8.7021484,23,7.1074219V2.5C23,2.2246094,22.7753906,2,22.5,2   z" fill="#010101" opacity="0.1"/><circle cx="7" cy="10" fill="#303C42" r="1"/><circle cx="15" cy="10" fill="#303C42" r="1"/><path d="M16.6220703,15.0146484c-0.2705078-0.0654297-0.5390625,0.0957031-0.6074219,0.3632813   C15.4960938,17.4433594,13.3408203,19,11,19c-2.3427734,0-4.4990234-1.5566406-5.0146484-3.6210938   c-0.0664063-0.2685547-0.3427734-0.4306641-0.6064453-0.3642578c-0.2685547,0.0673828-0.4306641,0.3388672-0.3642578,0.6064453   C5.6494141,18.1582031,8.1660156,20,11,20c2.8310547,0,5.3476563-1.8408203,5.9853516-4.3779297   C17.0517578,15.3535156,16.8896484,15.0820313,16.6220703,15.0146484z" fill="#303C42"/><linearGradient gradientUnits="userSpaceOnUse" id="SVGID_1_" x1="2.0745676" x2="22.012291" y1="6.1138029" y2="15.4109154"><stop offset="0" style="stop-color:#FFFFFF;stop-opacity:0.2"/><stop offset="1" style="stop-color:#FFFFFF;stop-opacity:0"/></linearGradient><path d="M22.5,1c-0.1953125,0-0.3818359,0.0371094-0.5527344,0.1054688   C21.7734375,0.46875,21.1904297,0,20.5,0s-1.2734375,0.46875-1.4472656,1.1054688C18.8818359,1.0371094,18.6953125,1,18.5,1   C17.6728516,1,17,1.6728516,17,2.5v1.2786865C15.2161865,2.6121826,13.1601563,2,11,2C4.9345703,2,0,6.9345703,0,13   s4.9345703,11,11,11s11-4.9345703,11-11c0-0.7981567-0.1031494-1.5889282-0.2731934-2.3637695   C23.0643921,10.0195923,24,8.6744385,24,7.1074219V2.5C24,1.6728516,23.3271484,1,22.5,1z" fill="url(#SVGID_1_)"/></g><g/><g/><g/><g/><g/><g/><g/><g/><g/><g/><g/><g/><g/><g/><g/></svg>
